<svg width="60" height="75" xmlns="http://www.w3.org/2000/svg"><path d="M30 8c16.569 0 30 13.431 30 30 0 16.569-13.431 30-30 30C13.431 68 0 54.569 0 38 0 21.431 13.431 8 30 8zm0 15h-5.625C19.125 23 15 27.125 15 32.375v11.25C15 48.875 19.125 53 24.375 53h11.25C40.875 53 45 48.875 45 43.625v-7.5c0-1.125-.75-1.875-1.875-1.875H41.25c-1.125 0-1.875-.75-1.875-1.875C39.375 27.125 35.25 23 30 23zm5.625 18.75c1.125 0 1.875.75 1.875 1.875s-.75 1.875-1.875 1.875h-11.25c-1.125 0-1.875-.75-1.875-1.875s.75-1.875 1.875-1.875h11.25zM30 30.5c1.125 0 1.875.75 1.875 1.875S31.125 34.25 30 34.25h-5.625c-1.125 0-1.875-.75-1.875-1.875s.75-1.875 1.875-1.875H30z" fill="#555" fill-rule="nonzero"/></svg>