<svg width="133" height="108" xmlns="http://www.w3.org/2000/svg"><g fill-rule="evenodd" opacity=".5"><ellipse opacity=".09" cx="3.5" cy="4" rx="3.5" ry="4"/><ellipse opacity=".09" cx="3.5" cy="26" rx="3.5" ry="4"/><ellipse opacity=".09" cx="3.5" cy="44" rx="3.5" ry="4"/><ellipse opacity=".09" cx="3.5" cy="64" rx="3.5" ry="4"/><ellipse opacity=".09" cx="3.5" cy="82" rx="3.5" ry="4"/><ellipse opacity=".09" cx="3.5" cy="104" rx="3.5" ry="4"/><ellipse opacity=".09" cx="27.5" cy="4" rx="3.5" ry="4"/><ellipse opacity=".09" cx="27.5" cy="26" rx="3.5" ry="4"/><ellipse opacity=".09" cx="27.5" cy="44" rx="3.5" ry="4"/><ellipse opacity=".09" cx="27.5" cy="64" rx="3.5" ry="4"/><ellipse opacity=".09" cx="27.5" cy="82" rx="3.5" ry="4"/><ellipse opacity=".09" cx="27.5" cy="104" rx="3.5" ry="4"/><ellipse opacity=".09" cx="54.5" cy="4" rx="3.5" ry="4"/><ellipse opacity=".09" cx="54.5" cy="26" rx="3.5" ry="4"/><ellipse opacity=".09" cx="54.5" cy="44" rx="3.5" ry="4"/><ellipse opacity=".09" cx="54.5" cy="64" rx="3.5" ry="4"/><ellipse opacity=".09" cx="54.5" cy="82" rx="3.5" ry="4"/><ellipse opacity=".09" cx="54.5" cy="104" rx="3.5" ry="4"/><ellipse opacity=".09" cx="78.5" cy="4" rx="3.5" ry="4"/><ellipse opacity=".09" cx="78.5" cy="26" rx="3.5" ry="4"/><ellipse opacity=".09" cx="78.5" cy="44" rx="3.5" ry="4"/><ellipse opacity=".09" cx="78.5" cy="64" rx="3.5" ry="4"/><ellipse opacity=".09" cx="78.5" cy="82" rx="3.5" ry="4"/><ellipse opacity=".09" cx="78.5" cy="104" rx="3.5" ry="4"/><ellipse opacity=".09" cx="105.5" cy="4" rx="3.5" ry="4"/><ellipse opacity=".09" cx="105.5" cy="26" rx="3.5" ry="4"/><ellipse opacity=".09" cx="105.5" cy="44" rx="3.5" ry="4"/><ellipse opacity=".09" cx="105.5" cy="64" rx="3.5" ry="4"/><ellipse opacity=".09" cx="105.5" cy="82" rx="3.5" ry="4"/><ellipse opacity=".09" cx="105.5" cy="104" rx="3.5" ry="4"/><ellipse opacity=".09" cx="129.5" cy="4" rx="3.5" ry="4"/><ellipse opacity=".09" cx="129.5" cy="26" rx="3.5" ry="4"/><ellipse opacity=".09" cx="129.5" cy="44" rx="3.5" ry="4"/><ellipse opacity=".09" cx="129.5" cy="64" rx="3.5" ry="4"/><ellipse opacity=".09" cx="129.5" cy="82" rx="3.5" ry="4"/><ellipse opacity=".09" cx="129.5" cy="104" rx="3.5" ry="4"/></g></svg>