<svg width="139" height="176" xmlns="http://www.w3.org/2000/svg"><defs><linearGradient x1="0%" y1="50.001%" x2="100%" y2="50.001%" id="a"><stop stop-color="#FFF" stop-opacity="0" offset="21%"/><stop stop-color="#FFF" stop-opacity=".2" offset="100%"/></linearGradient></defs><g fill="none"><path fill="#DAE5FB" opacity=".4" d="M7.376 167.995L0 163.618l11.036-6.552 7.372 4.374z"/><path fill="#DAE5FB" d="M7.703 159.327l-6.2-3.58 6.2-3.58 6.197 3.58z"/><path fill="#B1B6C4" d="M7.514 166.864l-6.011-3.643v-7.286l6.01 3.643z"/><path fill="#C4C7D6" d="M13.9 163.221l-6.01 3.643v-7.286l6.01-3.643z"/><path d="M15.897 160.26a2.17 2.17 0 0 0 1.614-.192c.39 0 2.505-.87 2.793-.128.252.649-.664 1.253-1.153 1.368-1.065.253-1.86.774-2.289.864a1.084 1.084 0 0 1-.986-.139c-.305-.312-.277-1.402.021-1.774z" fill="#024183"/><path d="M16.862 161.974c.43-.09 1.22-.61 2.289-.864.408-.098 1.114-.535 1.185-1.059.096.6-.731 1.132-1.185 1.24-1.065.253-1.86.773-2.289.864a1.084 1.084 0 0 1-.986-.14.548.548 0 0 1-.139-.25c.32.24.738.318 1.125.209z" fill="#0369D3"/><path d="M12.087 158.256a2.17 2.17 0 0 0 1.614-.19c.39 0 2.484-.872 2.789-.129.252.65-.664 1.253-1.15 1.368-1.064.253-1.86.774-2.288.864a1.084 1.084 0 0 1-.987-.139c-.305-.295-.273-1.385.022-1.774z" fill="#024183"/><path d="M13.052 159.988c.429-.09 1.22-.61 2.288-.864.408-.097 1.114-.534 1.185-1.059.096.601-.73 1.132-1.185 1.24-1.064.253-1.86.774-2.288.864a1.084 1.084 0 0 1-.987-.139.555.555 0 0 1-.138-.246c.321.237.738.313 1.125.204z" fill="#0369D3"/><path d="M6.15 155.684c1.65.694 3.194.82 4.475.153l1.313-.743.152 3.253s1.008.746 1.774.08c0 0 .163-2.326.33-4.617l1.377-.778a1.534 1.534 0 0 0-.054.375c0 .434.32 6.9.32 6.9s1.015.59 1.799-.072c0 0 .528-7.494.649-8.678.135-1.347-1.39-2.01-2.36-1.666l-1.475.538.07-.833c.139-1.347-1.39-2.01-2.355-1.666-.88.315-6.827 2.495-6.827 2.495.037.56.107 1.118.21 1.67l-2.35-.194c-.124 2.148 1.306 3.075 2.953 3.783zm4.102-3.724l1.572-.886a1.901 1.901 0 0 0-.05.33l-1.522.556z" fill="#0369D3"/><path d="M1.928 145.333s.192 2.857.575 3.27c.383.413 1.682.694 1.682.694l.997 1.59s-.912-5.096-1.11-5.207c-.2-.11-2.144-.347-2.144-.347z" fill="#FFCEA9"/><path d="M3.848 142.157a1.11 1.11 0 0 0-1.39.4c-.356.593-.75 2.637-.785 2.984.3.396.786.615 1.288.58l.887-3.964z" fill="#EDEDED"/><path d="M4.2 142.209c.503.024.88.15.943 0a6.27 6.27 0 0 0 .114-.77c-.057-.146-.107-.3-.107-.3-.635-.381-.834-1.04-.919-1.832-.142-1.336.596-2.503 1.959-2.642 1.284-.131 2.228.75 2.483 1.962.135.597.405 1.735.04 2.71-.203.55-.465.987-.71 1.07a6.188 6.188 0 0 1-.76-.063s-.067.372-.113.608-.032.364.454.656c.486.291-.73.892-1.526.833-.794-.059-1.688-.528-1.933-1.041-.295-.563-.273-1.222.074-1.191z" fill="#FFCEA9"/><path d="M16.993 150.94a.401.401 0 0 1-.205.346l-3.85 2.173a.416.416 0 0 1-.412 0l-5.393-3.048a.394.394 0 0 1-.205-.347v-.027l10.065.902z" fill="#E5E5E5"/><path d="M16.788 151.286l-3.85 2.173a.397.397 0 0 1-.206.056v-2.576h4.258a.401.401 0 0 1-.202.347z" fill="#E5E5E5"/><path d="M12.878 153.261a.286.286 0 0 1-.288 0l-5.61-3.165c-.07-.042-.07-.108 0-.146l4.13-2.336 5.883 3.325-4.115 2.322z" fill="#F4F4F4"/><path fill="#BFBFBF" d="M9.284 150.94l.028.013 1.799 1.017.986-.559.029-.014-1.828-1.03z"/><path fill="#E5E5E5" d="M9.312 150.953l1.799 1.017.986-.559-1.799-1.013z"/><path d="M15.468 151.102l.259.146a.087.087 0 0 0 .081 0l.249-.139c.025 0 .028-.035 0-.045l-.26-.15a.098.098 0 0 0-.08 0l-.25.143c-.017.014-.02.035 0 .045zm-.366-.215l.26.146a.087.087 0 0 0 .081 0l.248-.14c.025 0 .025-.034 0-.044l-.259-.146a.087.087 0 0 0-.081 0l-.249.139c-.017.02-.02.045 0 .045zm-.369-.197l.26.145a.105.105 0 0 0 .085 0l.244-.139c.025 0 .029-.035 0-.049l-.259-.145a.087.087 0 0 0-.081 0l-.249.139c-.017.013-.02.034 0 .048zm-.365-.21l.259.147a.098.098 0 0 0 .082 0l.248-.14c.025 0 .028-.034 0-.048l-.26-.146a.105.105 0 0 0-.084 0l-.245.14c-.018.013-.021.034 0 .048zm-.369-.207l.262.145a.087.087 0 0 0 .082 0l.245-.138c.025 0 .028-.035 0-.046l-.26-.149a.098.098 0 0 0-.08 0l-.25.142c-.017.014-.02.035 0 .046zm-.366-.209l.26.15a.098.098 0 0 0 .081 0l.248-.143c.025 0 .029-.034 0-.045l-.259-.146a.094.094 0 0 0-.085 0l-.245.14c-.017.013-.02.034 0 .044zm-.365-.218l.259.145a.098.098 0 0 0 .082 0l.248-.138c.025 0 .025-.035 0-.049l-.259-.146a.098.098 0 0 0-.082 0l-.248.139c-.021.028-.021.049 0 .049zm-.369-.195l.259.146a.087.087 0 0 0 .082 0l.248-.139c.025 0 .028-.035 0-.045l-.259-.15a.098.098 0 0 0-.082 0l-.248.143c-.018.014-.021.035 0 .045zm-.365-.208l.259.146a.087.087 0 0 0 .081 0l.249-.14c.024 0 .024-.034 0-.044l-.267-.15a.087.087 0 0 0-.081 0l-.249.14c-.024.017-.024.038.008.048zm-.369-.205l.259.146a.105.105 0 0 0 .085 0l.245-.139c.024 0 .028-.035 0-.048l-.252-.15a.087.087 0 0 0-.082 0l-.248.14c-.025.016-.025.037-.007.051zm-.373-.208l.259.146a.098.098 0 0 0 .082 0l.248-.14c.025 0 .028-.034 0-.048l-.234-.149a.105.105 0 0 0-.085 0l-.245.139c-.025.017-.025.038-.025.052zm-.355-.208l.263.145a.087.087 0 0 0 .081 0l.249-.138c.021 0 .025-.035 0-.046l-.26-.149a.098.098 0 0 0-.08 0l-.25.142c-.028.028-.028.028-.003.046zm-.355-.209l.26.15a.098.098 0 0 0 .081 0l.248-.143c.025 0 .029-.034 0-.045l-.259-.146a.094.094 0 0 0-.085 0l-.245.14c-.035.013-.039.034 0 .044zm-.56-.305l.436.246a.098.098 0 0 0 .082 0l.248-.139c.025 0 .025-.034 0-.048l-.433-.257a.098.098 0 0 0-.081 0l-.249.142c-.01 0-.02.004-.025.013a.027.027 0 0 0-.002.027.028.028 0 0 0 .024.016zm4.045 2.687l.262.145a.087.087 0 0 0 .082 0l.248-.138c.021 0 .025-.035 0-.046l-.259-.145a.087.087 0 0 0-.081 0l-.249.138c-.021.014-.021.035-.003.046zm-.366-.209l.26.15a.098.098 0 0 0 .08 0l.25-.143c.024 0 .028-.034 0-.045l-.26-.146a.094.094 0 0 0-.085 0l-.245.14c-.018.013-.021.034 0 .044zm-.369-.204l.26.145a.105.105 0 0 0 .084 0l.245-.139c.025 0 .029-.034 0-.048l-.259-.146a.098.098 0 0 0-.081 0l-.249.139c-.018.007-.021.035 0 .049zm-.365-.209l.259.146a.098.098 0 0 0 .081 0l.249-.139c.025 0 .025-.035 0-.048l-.26-.146a.098.098 0 0 0-.08 0l-.25.139c-.02.014-.02.034 0 .048zm-.366-.208l.26.15a.098.098 0 0 0 .08 0l.25-.143c.024 0 .028-.035 0-.045l-.26-.146a.094.094 0 0 0-.085 0l-.245.139c-.017.014-.021.035 0 .045zm-.369-.205l.26.146a.105.105 0 0 0 .084 0l.245-.139c.025 0 .029-.035 0-.048l-.259-.146a.098.098 0 0 0-.081 0l-.249.139c-.017.013-.021.034 0 .048zm-.365-.208l.259.146a.098.098 0 0 0 .081 0l.249-.14c.025 0 .025-.034 0-.048l-.26-.146a.098.098 0 0 0-.08 0l-.25.14c-.02.013-.02.034 0 .048zm-.369-.208l.259.145a.087.087 0 0 0 .081 0l.249-.138c.025 0 .028-.035 0-.046l-.26-.149a.105.105 0 0 0-.084 0l-.245.143c-.018 0-.021.034 0 .045zm-.369-.209l.262.146a.087.087 0 0 0 .082 0l.248-.139c.022 0 .025-.034 0-.045l-.259-.146a.087.087 0 0 0-.081 0l-.249.14c-.02.013-.02.034-.003.044zm-.366-.208l.26.15a.098.098 0 0 0 .081 0l.248-.143c.025 0 .029-.035 0-.045l-.259-.146a.094.094 0 0 0-.085 0l-.245.139c-.017.014-.02.035 0 .045zm-.369-.205l.26.146a.105.105 0 0 0 .085 0l.244-.139c.025 0 .029-.034 0-.048l-.259-.146a.098.098 0 0 0-.081 0l-.249.139c-.017.014-.02.034 0 .048zm-.365-.208l.259.146a.098.098 0 0 0 .082 0l.248-.139c.025 0 .025-.035 0-.049l-.26-.145a.098.098 0 0 0-.08 0l-.25.138c-.02.014-.02.035 0 .049zm4.407 2.489l.436.246a.098.098 0 0 0 .082 0l.248-.139c.025 0 .028-.034 0-.048l-.436-.247a.105.105 0 0 0-.086 0l-.244.143c-.018.014-.022.034 0 .045zm-4.439-2.885l.259.146c.021 0 .021.031 0 .045l-.263.146a.072.072 0 0 1-.074 0h-.021a.083.083 0 0 0-.071 0l-.277.156a.101.101 0 0 1-.078 0l-.163-.094c-.022 0-.022-.03 0-.045l.259-.145.053-.028.039-.024.039-.021.22-.125a.08.08 0 0 1 .078-.01zm3.548 3.586l.26.146a.087.087 0 0 0 .08 0l.249-.139c.025 0 .025-.035 0-.045l-.259-.146a.087.087 0 0 0-.082 0l-.248.139c-.018.014-.021.035 0 .045zm-.365-.204l.259.145a.098.098 0 0 0 .081 0l.249-.139c.024 0 .024-.035 0-.048l-.26-.146a.098.098 0 0 0-.081 0l-.248.139c-.022.014-.022.034 0 .048zm-.37-.209l.263.146a.087.087 0 0 0 .082 0l.248-.14c.021 0 .025-.034 0-.044l-.259-.146a.087.087 0 0 0-.081 0l-.249.142c-.021.01-.021.032-.003.042zm-3.115-1.76l.26.146a.094.094 0 0 0 .085 0l.244-.139c.025 0 .029-.035 0-.045l-.259-.15a.098.098 0 0 0-.081 0l-.249.143c-.017.014-.02.035 0 .045zm-.365-.205l.259.146a.098.098 0 0 0 .082 0l.248-.142c.025 0 .028-.031 0-.045l-.26-.146a.094.094 0 0 0-.084 0l-.245.139c-.018.02-.021.02 0 .048zm-.365-.208l.259.146a.087.087 0 0 0 .081 0l.248-.14c.025 0 .029-.034 0-.044l-.259-.15a.105.105 0 0 0-.085 0l-.244.143c-.018.014-.022.035 0 .045zm-.365-.208l.258.149a.098.098 0 0 0 .082 0l.248-.142c.025 0 .025-.035 0-.045l-.263-.146a.087.087 0 0 0-.081 0l-.248.139c-.015.013-.018.034.003.045zm3.756 2.124l.355.201a.105.105 0 0 0 .085 0l.245-.138c.025 0 .029-.035 0-.049l-.355-.198a.087.087 0 0 0-.081 0l-.249.139c-.02.01-.024.045 0 .045zm-2.296-1.294l.356.197a.087.087 0 0 0 .081 0l.249-.139c.024 0 .028-.034 0-.048l-.355-.198a.098.098 0 0 0-.082 0l-.248.139c-.018.014-.021.034 0 .048zm.462.253l1.724.975a.098.098 0 0 0 .082 0l.248-.139c.025 0 .025-.034 0-.048l-1.72-.972a.094.094 0 0 0-.086 0l-.244.139c-.022.017-.025.045-.004.045zm3.09.947l.26.146a.087.087 0 0 0 .081 0l.248-.139c.025 0 .029-.034 0-.048l-.259-.146a.105.105 0 0 0-.085 0l-.245.139c-.017.014-.02.035 0 .048zm-.365-.208l.259.146a.087.087 0 0 0 .082 0l.248-.139c.025 0 .025-.035 0-.045l-.259-.146a.087.087 0 0 0-.082 0l-.248.139c-.018 0-.021.035 0 .045zm-.369-.205l.263.146a.098.098 0 0 0 .081 0l.249-.139c.02 0 .024-.034 0-.048l-.26-.146a.098.098 0 0 0-.081 0l-.248.139c-.022.014-.022.034-.004.048zm-.365-.208l.259.146a.087.087 0 0 0 .081 0l.249-.139c.024 0 .028-.035 0-.049l-.26-.145a.098.098 0 0 0-.081 0l-.248.142c-.018.014-.022.035 0 .045zm-.366-.209l.26.147a.087.087 0 0 0 .08 0l.25-.143c.024 0 .027-.034 0-.045l-.26-.146a.094.094 0 0 0-.085 0l-.245.14c-.018.017-.021.037 0 .048zm-.365-.204l.259.146a.098.098 0 0 0 .081 0l.249-.14c.02 0 .024-.034 0-.048l-.26-.145a.098.098 0 0 0-.081 0l-.248.138c-.022.014-.022.035 0 .049zm-.369-.208l.259.145a.094.094 0 0 0 .085 0l.245-.138c.024 0 .028-.035 0-.045l-.26-.15a.098.098 0 0 0-.081 0l-.248.143c-.018.013-.022.034 0 .045zm-.366-.208l.245.156a.098.098 0 0 0 .082 0l.248-.143c.025 0 .028-.034 0-.045l-.259-.146a.094.094 0 0 0-.085 0l-.245.14a.028.028 0 0 0 .014.037zm-.365-.191l.259.145a.098.098 0 0 0 .081 0l.249-.139c.025 0 .025-.034 0-.048l-.26-.146a.098.098 0 0 0-.08 0l-.25.139c-.02 0-.02.02 0 .049zm-.369-.223l.259.146a.094.094 0 0 0 .085 0l.245-.139c.025 0 .028-.034 0-.045l-.26-.15a.098.098 0 0 0-.08 0l-.25.143c-.017.014-.02.035 0 .045zm-.366-.208l.26.15a.098.098 0 0 0 .08 0l.25-.143c.024 0 .028-.035 0-.045l-.26-.146a.094.094 0 0 0-.085 0l-.245.139c-.017.014-.021.035 0 .045z" fill="#01254B"/><path d="M10.082 148.863l.259.146a.098.098 0 0 0 .081 0l.249-.139c.025 0 .025-.034 0-.048l-.26-.146a.098.098 0 0 0-.08 0l-.25.139c-.02.014-.02.034 0 .048zm4.396 2.486l.54.302a.098.098 0 0 0 .08 0l.246-.14c.024 0 .028-.034 0-.048l-.536-.302a.087.087 0 0 0-.082 0l-.248.14c-.018.013-.021.034 0 .048zm-.539.093l.259.15a.098.098 0 0 0 .081 0l.249-.143c.024 0 .028-.034 0-.045l-.26-.146a.087.087 0 0 0-.081 0l-.248.14c-.018.013-.018.034 0 .044zm-.373-.208l.26.146a.098.098 0 0 0 .08 0l.249-.139c.025 0 .028-.035 0-.049l-.263-.145a.098.098 0 0 0-.081 0l-.245.139v.048zm-.355-.204l.26.145a.087.087 0 0 0 .08 0l.25-.139c.02 0 .024-.034 0-.045l-.26-.15a.098.098 0 0 0-.081 0l-.249.143c-.025.014-.025.035 0 .045zm-.355-.209l.26.15a.105.105 0 0 0 .085 0l.244-.143c.025 0 .029-.035 0-.045l-.259-.146a.087.087 0 0 0-.081 0l-.249.139c-.035.014-.039.035 0 .045zm-.383-.205l.26.146a.098.098 0 0 0 .08 0l.25-.139c.024 0 .028-.035 0-.048l-.26-.146a.105.105 0 0 0-.085 0l-.245.139c-.017.014-.021.034 0 .048zm-.365-.208l.259.146a.087.087 0 0 0 .081 0l.249-.14c.025 0 .025-.034 0-.044l-.26-.146a.087.087 0 0 0-.08 0l-.25.139c-.02.014-.02.035 0 .045zm-.369-.215l.259.146a.105.105 0 0 0 .085 0l.245-.14c.025 0 .028-.034 0-.048l-.26-.146a.087.087 0 0 0-.08 0l-.25.14c-.017.023-.02.048 0 .048zm-.366-.198l.26.146a.087.087 0 0 0 .081 0l.248-.14c.025 0 .029-.034 0-.048l-.259-.146a.105.105 0 0 0-.085 0l-.245.143c-.017.01-.02.031 0 .045zm-.365-.208l.259.145a.094.094 0 0 0 .082 0l.248-.142c.025 0 .025-.035 0-.045l-.263-.146a.087.087 0 0 0-.081 0l-.249.139c-.014.017-.017.038.004.049zm-.366-.205l.26.146a.098.098 0 0 0 .081 0l.248-.14c.022 0 .025-.034 0-.048l-.259-.146a.098.098 0 0 0-.081 0l-.249.14c-.02.013-.02.034 0 .048zm-.369-.208l.26.145a.094.094 0 0 0 .085 0l.244-.139c.025 0 .029-.034 0-.045l-.259-.149a.098.098 0 0 0-.081 0l-.249.142c-.017.014-.02.035 0 .046zm-.819-.462l.71.403a.098.098 0 0 0 .081 0l.248-.143c.025 0 .029-.034 0-.045l-.71-.403a.094.094 0 0 0-.084 0l-.245.14c-.018.013-.021.034 0 .048zm4.85 2.738l.355.202a.098.098 0 0 0 .081 0l.249-.142c.025 0 .028-.035 0-.045l-.355-.202a.098.098 0 0 0-.082 0l-.248.143c-.028.013-.028.034 0 .045z" fill="#01254B"/><path d="M16.993 150.94l-5.882-3.326V143.1l.046-.104.046-.02a.409.409 0 0 1 .408 0l5.382 3.036a.404.404 0 0 1 .203.348v4.248c-.04.205-.082.257-.203.33z" fill="#E5E5E5"/><path d="M16.454 146.551l-5.343-3.3v-.15l.046-.104.046-.02a.409.409 0 0 1 .408 0l5.382 3.036a.37.37 0 0 1 .153.16l-.692.378z" fill="#E5E5E5"/><path d="M11.246 142.987l5.648 3.19c.06.034.098.098.1.166v4.596l-5.883-3.325v-4.551a.084.084 0 0 1 .044-.077.09.09 0 0 1 .09 0z" fill="#DCEEFF"/><path d="M11.246 142.987l5.648 3.19c.06.034.098.098.1.166v4.596l-5.883-3.325v-4.551a.084.084 0 0 1 .044-.077.09.09 0 0 1 .09 0z" fill="#F4F4F4"/><path fill="#DBDBDB" d="M16.993 150.94v-.168l-5.882-3.322v.164z"/><path fill="#1E3779" d="M11.263 147.374v-4.148l.071.038v4.075z"/><path fill="#01254B" d="M11.334 143.264v4.075l5.471 3.08v-4.065z"/><path fill="#031F60" d="M11.263 147.374l5.542 3.128v-.084l-5.47-3.079z"/><path d="M4.93 142.268c-.142.347.217.757 1.164 1.041.947.285 1.032-.083 1.032-.083a19.17 19.17 0 0 1 1.845.93c.568.39.82 1.517.898 3.42.089 2.2.096 5.463.021 6.029 0 0-1.064 1.041-2.423.927-1.359-.115-3.655-1.288-4.208-2.198 0-1.93.245-2.245-.075-3.356-.73-2.545-1.117-3.586-.759-5.28.291-1.388.71-1.565 1.267-1.552.414.02.828.06 1.238.122z" fill="#F4F4F4"/><path d="M12.108 149.94c-1.118.277-1.38-.414-1.526-.983-.355-1.388-.546-2.631-.812-3.416-.313-.923-.639-1.072-1.1-1.253-.536-.212-1 .236-.823 1.413a23.291 23.291 0 0 0 1.025 4.02 3.54 3.54 0 0 0 .915 1.562c.579.458 1.448.437 2.76.118.77-.257 1.518-.574 2.236-.948.284-.128.504-.215 1.064-.465a3.695 3.695 0 0 0 1.42-1.07c.284-.405.323-.596.266-.693-.057-.098-.206-.09-.355.08a3.01 3.01 0 0 1-.802.725s.355-.347.543-.587c.172-.211.314-.445.422-.694.103-.236-.106-.555-.266-.389-.16.167-.23.347-.521.694a2.93 2.93 0 0 1-.518.483c.18-.237.34-.488.478-.75.125-.21.185-.451.174-.694 0-.122-.188-.267-.354-.035-.173.332-.388.64-.64.92-.255.26-.471.41-.478.347-.007-.062.156-.215.245-.513.088-.299 0-.622-.17-.657-.17-.034-.139-.027-.274.257-.19.29-.359.591-.507.903a1.88 1.88 0 0 1-.461.774c-.27.274-.877.59-1.941.85z" fill="#FFCEA9"/><path d="M8.244 144.1c.745-.107 1.274.223 1.604 1.327.33 1.104.557 2.013.557 2.013a2.025 2.025 0 0 1-1.25.812c-.89.212-1.213-.204-1.213-.204s-.248-1.16-.4-1.948c-.153-.788-.206-1.867.702-2z" fill="#EDEDED"/><path d="M8.627 138.44s1.178-1.754-1.376-2.111c-1.842-.257-3.027.899-3.162 2.155-.131 1.201.625 2.448 1.168 2.944a2.269 2.269 0 0 0 1.593-.187c.03-.328.042-.657.035-.986 0 0-.898-1.847 1.742-1.816z" fill="#01254B"/><path fill="#C4C7D6" d="M13.524 161.095v-5.16l-4.132 2.391 1.591 3.262z"/><path fill="#DAE5FB" d="M10.895 156.058l1.76-.877 1.245.618-1.825.89z"/><path d="M77.69 131.77l-19.955-11.52c-1.44-.831-1.258-2.283.403-3.244l12.929-7.464 25.165 14.544-12.924 7.464c-1.665.961-4.179 1.063-5.62.221z" fill="#DAE5FB" opacity=".4"/><path d="M79.148 130.925L59.19 119.4c-1.437-.83-1.255-2.279.403-3.24l12.928-7.464 25.166 14.53-12.928 7.468c-1.662.957-4.175 1.076-5.612.231z" fill="#B1B4C4"/><path fill="#B1B4C4" d="M97.688 123.225v-.76l-1.16.67zM58.22 118.03v-.776l1.195.495z"/><path d="M79.148 130.164L59.19 118.64c-1.437-.83-1.255-2.282.403-3.24l12.928-7.471 25.166 14.533-12.928 7.465c-1.662.964-4.175 1.066-5.612.238z" fill="#DAE5FB"/><path fill="#9EA1AF" d="M72.592 107.966L69.476 97.63l25.44 14.596 2.772 10.239z"/><path fill="#9EA1AF" d="M96.952 122.889l.736-.424-1.104-.863z"/><path fill="#B1B4C4" d="M71.79 108.356l-3.117-10.337 25.44 14.597 2.839 10.273z"/><path d="M136.367 140.308L37.895 83.444c-1.38-.8-2.5-2.939-2.5-4.78V2.479c0-1.841 1.12-2.69 2.5-1.89l98.472 56.85c1.382.796 2.5 2.935 2.5 4.779v76.215c0 1.827-1.118 2.675-2.5 1.876z" fill="#C4C7D6"/><path fill="#C4C7D6" d="M136.872 141.093l1.094-.627-.473-3.237z"/><path d="M35.217 1.054L36.29.437l1.542.88s-1.644.25-1.682.239a42.525 42.525 0 0 1-.933-.502z" fill="#B1B4C4"/><path d="M135.463 140.83L36.991 83.966c-1.381-.8-2.503-2.938-2.503-4.779V3c0-1.844 1.122-2.69 2.503-1.893l98.468 56.864c1.382.8 2.503 2.938 2.503 4.782v76.184c.004 1.844-1.118 2.69-2.499 1.893z" fill="#E4E7F2"/><path d="M135.291 140.928L36.82 84.064c-1.381-.8-2.5-2.938-2.5-4.779V3.091c0-1.84 1.119-2.689 2.5-1.89l98.472 56.872c1.381.796 2.5 2.934 2.5 4.779v76.187c0 1.847-1.119 2.689-2.5 1.89z" fill="#092258"/><path d="M102.251 136.01L1.381 77.761l.053-74.644c0-.764.536-1.073 1.199-.701l98.472 56.874a2.647 2.647 0 0 1 1.199 2.076l-.053 74.644z" fill="url(#a)" opacity=".3" transform="translate(34.186 .286)"/><path fill="#50729E" d="M90.116 46.243V43.83l6.685 3.86v2.413z"/><path fill="#F4B600" d="M112.253 59.033l-14.2-8.208v-2.412l14.2 8.208z"/><path fill="#50729E" d="M96.801 57.82l-6.685-3.857v-2.412l6.685 3.857z"/><path fill="#429DFC" d="M102.757 61.32l-4.704-2.774v-2.412l4.704 2.773z"/><path fill="#50729E" d="M96.801 61.68l-6.685-3.86v-2.412l6.685 3.86z"/><path fill="#429DFC" d="M105.989 66.985l-7.936-4.582V59.99l7.936 4.582z"/><path fill="#50729E" d="M96.801 65.537l-6.685-3.856v-2.413l6.685 3.86z"/><path fill="#D0514D" d="M118.984 78.321L98.053 66.263v-2.412l20.93 12.061z"/><path fill="#50729E" d="M96.801 53.963l-6.685-3.86V47.69l6.685 3.86z"/><path fill="#0B66DE" d="M124.126 69.759L98.053 54.686v-2.413l26.073 15.074z"/><path fill="#50729E" d="M96.801 69.398l-6.685-3.86v-2.413l6.685 3.86z"/><path fill="#4BC268" d="M120.607 83.388L98.053 70.124V67.71l22.554 13.264z"/><path fill="#50729E" d="M96.801 77.118l-6.685-3.86v-2.412l6.685 3.86z"/><path fill="#0B66DE" d="M124.368 93.037L98.053 77.84v-2.413l26.315 15.197z"/><path fill="#50729E" d="M96.801 80.975l-6.685-3.857v-2.412l6.685 3.857z"/><path fill="#4BC268" d="M105.989 86.284l-7.936-4.586v-2.41l7.936 4.583z"/><path fill="#50729E" d="M96.801 84.836l-6.685-3.86v-2.413l6.685 3.86z"/><path fill="#429DFC" d="M114.269 94.965l-16.216-9.407v-2.412l16.216 9.407z"/><path fill="#50729E" d="M96.801 73.258l-6.685-3.86v-2.413l6.685 3.86z"/><path fill="#429DFC" d="M100.976 75.67l-2.923-1.69v-2.412l2.923 1.69z"/><path fill="#50729E" d="M96.801 88.696l-6.685-3.86v-2.413l6.685 3.86z"/><path fill="#4BC268" d="M108.52 95.45l-10.467-6.032v-2.412l10.467 6.03z"/><path fill="#50729E" d="M96.801 96.413l-6.685-3.86V90.14L96.801 94z"/><path fill="#D0514D" d="M113.326 105.845l-15.273-8.71v-2.412l15.273 8.71z"/><path fill="#50729E" d="M96.801 100.274l-6.685-3.86V94l6.685 3.86z"/><path fill="#0B66DE" d="M99.96 102.202l-1.907-1.206v-2.412l1.907 1.206z"/><path fill="#50729E" d="M96.801 104.13l-6.685-3.856V97.86l6.685 3.857z"/><path fill="#F4B600" d="M106.813 109.902l-8.76-5.046v-2.412l8.76 5.046z"/><path fill="#50729E" d="M96.801 92.553l-6.685-3.857V86.28l6.685 3.86z"/><path fill="#429DFC" d="M110.241 100.274l-12.188-6.999v-2.409l12.188 6.995z"/><path fill="#50729E" d="M53.565 25.984l-6.685-3.86V19.71l6.685 3.86z"/><path fill="#4BC268" d="M83.221 43.108L54.816 26.706v-2.413l28.405 16.403z"/><path fill="#50729E" d="M53.565 33.7l-6.685-3.86v-2.412l6.685 3.86z"/><path fill="#F4B600" d="M73.612 45.278L54.816 34.423v-2.412l18.796 10.855z"/><path fill="#50729E" d="M53.565 37.561l-6.685-3.86v-2.413l6.685 3.86z"/><path fill="#D0514D" d="M78.208 51.79L54.816 38.282V35.87l23.392 13.506z"/><path fill="#50729E" d="M53.565 41.418l-6.685-3.857V35.15l6.685 3.857z"/><path fill="#0B66DE" d="M71.106 51.551l-16.29-9.407V39.73l16.29 9.408z"/><path fill="#50729E" d="M53.565 29.84l-6.685-3.86v-2.409l6.685 3.857z"/><path fill="#429DFC" d="M69.017 38.767l-14.2-8.2v-2.413l14.2 8.201z"/><path fill="#50729E" d="M53.565 45.278l-6.685-3.86v-2.412l6.685 3.86z"/><path fill="#4BC268" d="M63.17 50.825l-8.354-4.824v-2.413l8.354 4.825z"/><path fill="#50729E" d="M53.565 52.996l-6.685-3.86v-2.41l6.685 3.857z"/><path fill="#F4B600" d="M81.132 68.917L54.816 53.721V51.31l26.316 15.196z"/><path fill="#50729E" d="M53.565 56.856l-6.685-3.86v-2.413l6.685 3.86z"/><path fill="#D0514D" d="M62.753 62.16l-7.937-4.582v-2.412l7.937 4.583z"/><path fill="#50729E" d="M53.565 60.716l-6.685-3.86v-2.412l6.685 3.86z"/><path fill="#0B66DE" d="M78.208 74.945L54.816 61.439v-2.413l23.392 13.51z"/><path fill="#50729E" d="M53.565 49.139l-6.685-3.86v-2.413l6.685 3.86z"/><path fill="#429DFC" d="M76.953 62.645L54.816 49.86v-2.412l22.137 12.783z"/><path fill="#50729E" d="M53.565 64.573l-6.685-3.86v-2.409l6.685 3.857z"/><path fill="#4BC268" d="M57.74 66.985L54.816 65.3v-2.412l2.924 1.686z"/><path fill="#50729E" d="M53.565 72.294l-6.685-3.86V66.02l6.685 3.86z"/><path fill="#F4B600" d="M60.246 76.15l-5.43-3.134v-2.412l5.43 3.134z"/><path fill="#50729E" d="M53.565 76.15l-6.685-3.856v-2.412l6.685 3.856z"/><path fill="#D0514D" d="M69.017 85.078l-14.2-8.201v-2.413l14.2 8.201z"/><path fill="#50729E" d="M53.565 80.011l-6.685-3.86v-2.413l6.685 3.86z"/><path fill="#0B66DE" d="M77.37 93.76L54.816 80.732V78.32L77.37 91.347z"/><path fill="#50729E" d="M53.565 68.434l-6.685-3.86V62.16l6.685 3.86z"/><path fill="#429DFC" d="M83.221 85.558L54.816 69.156v-2.412l28.405 16.402z"/><ellipse fill="#DAE5FB" opacity=".4" cx="104.814" cy="167.43" rx="14.651" ry="8.48"/><path d="M120.967 165.943v-22.445l-29.25.732.064 20.699c-.547 2.491.84 5.094 4.171 7.007 5.723 3.286 15.002 3.29 20.725 0 2.875-1.662 4.304-3.83 4.29-5.993z" fill="#D0514D"/><ellipse fill="#DB7976" cx="106.316" cy="143.31" rx="14.651" ry="8.48"/><path d="M118.714 143.688c0 1.394-1.151 2.859-3.15 4.026-2.182 1.262-5.163 2.042-8.303 2.17-.313 0-.626.021-.943.021-3.484 0-6.852-.801-9.25-2.191-1.998-1.167-3.15-2.632-3.15-4.026 0-1.393 1.152-2.858 3.15-4.025 2.398-1.393 5.766-2.195 9.246-2.195.317 0 .634 0 .947.022 3.14.127 6.12.907 8.303 2.173 1.999 1.157 3.15 2.607 3.15 4.025z" fill="#28221C"/><path d="M118.714 143.688c0 1.399-1.133 2.869-3.1 4.04-2.147 1.266-5.08 2.049-8.169 2.177-3.089-.128-6.026-.91-8.17-2.178-1.97-1.192-3.102-2.65-3.102-4.039 0-1.387 1.129-2.868 3.096-4.038 2.147-1.27 5.084-2.054 8.173-2.182 3.088.128 6.022.911 8.169 2.182 1.97 1.16 3.103 2.615 3.103 4.038z" fill="#FFF" opacity=".07"/><path d="M118.762 153.97l-3.065-1.804-1.492.878 1.492.878v.576l2.876 1.685-.087.54c.418.352 1.906 3.16 1.906 3.16l.103-.098v7.278c0 1.91-1.1 1.264-1.57.986l-3.228-1.895-1.492.874 1.492.874v.576l3.228 1.896c.326.198.673.359 1.035.477l-.193.913 1.671-.959h.048c.69-.414.984-1.422.984-2.552v-7.636c.014-3.227-2.42-5.758-3.708-6.646z" fill="#CB3E39"/><path d="M117.607 171.17l-3.402-1.86v-2.294l3.402 1.86c.495.269 1.655.906 1.655-.971v-7.457c0-1.764-1.684-2.983-1.972-3.176l-3.085-1.688v-2.287l3.231 1.77c.718.46 1.765 1.37 2.595 2.59.744 1.094 1.312 2.438 1.312 3.934v7.464c0 2.015-.971 3.624-3.736 2.115z" fill="#9D2D2A"/><ellipse fill="#DAE5FB" opacity=".4" cx="14.651" cy="124.843" rx="10.143" ry="5.842"/><ellipse fill="#DAE5FB" cx="15.778" cy="124.089" rx="10.143" ry="5.842"/><path fill="#DAE5FB" d="M2.63 104.303l3.485 20.352h19.789l3.399-20.204z"/><ellipse fill="#E4E6EF" cx="16.154" cy="103.927" rx="13.524" ry="7.914"/><path d="M15.966 109.58c-3.323 0-6.42-.722-8.725-2.038-1.978-1.125-3.109-2.583-3.109-3.992 0-1.41 1.131-2.868 3.109-3.993 2.3-1.315 5.402-2.037 8.725-2.037 3.323 0 6.425.722 8.725 2.037 1.978 1.125 3.109 2.583 3.109 3.993 0 1.41-1.113 2.884-3.109 3.992-2.3 1.323-5.38 2.038-8.725 2.038z" fill="#28221C"/><path d="M21.664 97.796c.384-5.372-1.715-10.618-5.672-14.182l-.038-.039v.075c-3.96 3.564-6.06 8.813-5.675 14.188l-7.65-.752c3.228 12.407 13.363 11.34 13.363 11.34v-.025c.765.06 10.219.559 13.31-11.344l-7.638.739z" fill="#30A84D"/><path d="M16.154 108.449s-.688-9.684-13.304-16.206c-.01 0-2.99 16.09 13.304 16.206zm0 0s.688-9.684 13.309-16.206c0 0 2.99 16.09-13.309 16.206z" fill="#4BC268"/></g></svg>