<svg width="169" height="176" xmlns="http://www.w3.org/2000/svg"><defs><linearGradient x1="63.167%" y1="89.534%" x2="36.838%" y2="10.458%" id="a"><stop stop-color="#FFF" stop-opacity=".4" offset="0%"/><stop stop-color="#FFF" stop-opacity="0" offset="89%"/></linearGradient></defs><g fill="none"><path d="M104.34 138.798L83.315 126.64c-1.518-.875-1.326-2.409.426-3.418l13.622-7.878 26.528 15.315-13.622 7.878c-1.748 1.027-4.396 1.136-5.927.26z" fill="#DAE5FB" opacity=".4"/><path d="M105.89 137.893l-21.027-12.157c-1.517-.876-1.325-2.41.427-3.418l13.632-7.879 26.514 15.33-13.622 7.878c-1.759 1.013-4.407 1.122-5.924.246z" fill="#B1B4C4"/><path fill="#B1B4C4" d="M125.429 129.773v-.807l-1.225.709zm-41.588-5.488v-.814l1.257.521z"/><path d="M105.89 137.087l-21.027-12.154c-1.517-.88-1.325-2.41.427-3.422l13.632-7.875 26.514 15.33-13.622 7.875c-1.759 1.012-4.407 1.125-5.924.246z" fill="#DAE5FB"/><path fill="#9EA1AF" d="M98.984 113.672L95.7 102.77l26.807 15.395 2.922 10.801z"/><path fill="#9EA1AF" d="M124.649 129.415l.776-.449-1.152-.922z"/><path fill="#B1B4C4" d="M98.135 114.081l-3.28-10.902 26.806 15.398 2.988 10.838z"/><path d="M166.182 147.79L62.438 87.802c-1.445-.839-2.637-3.1-2.637-5.042V2.39c0-1.943 1.182-2.837 2.637-1.994l103.744 59.988c1.445.84 2.637 3.096 2.637 5.039v80.374c0 1.942-1.18 2.836-2.637 1.993z" fill="#C4C7D6"/><path fill="#C4C7D6" d="M166.717 148.618l1.149-.662-.495-3.414z"/><path d="M59.603.888l1.13-.65 1.626.925s-1.73.264-1.774.257c-.043-.007-.982-.532-.982-.532z" fill="#B1B4C4"/><path d="M165.232 148.34L61.47 88.338c-1.445-.84-2.633-3.097-2.633-5.043V2.94c0-1.942 1.181-2.836 2.633-1.993l103.762 59.988c1.445.839 2.634 3.096 2.634 5.042v80.37c0 1.943-1.178 2.836-2.634 1.994z" fill="#E4E7F2"/><path d="M165.048 148.445L61.29 88.457c-1.445-.843-2.637-3.1-2.637-5.042V3.045c0-1.943 1.18-2.837 2.637-1.994l103.758 59.988c1.445.839 2.637 3.096 2.637 5.038v80.375c0 1.931-1.181 2.835-2.637 1.993z" fill="#DAE5FB"/><path d="M166.258 143.558L59.971 82.108l.054-78.742c0-.807.567-1.132 1.265-.723l103.758 59.98a2.804 2.804 0 0 1 1.264 2.192l-.054 78.743z" fill="#FFF"/><path d="M74.973 28.672l-9.645-5.585a1.324 1.324 0 0 1-.549-1.053V11.06c0-.405.246-.59.55-.416l9.644 5.588c.34.242.543.632.549 1.05v10.974c0 .398-.246.593-.55.416zm13.394 7.744l-9.673-5.592a1.324 1.324 0 0 1-.55-1.052V18.804c0-.405.246-.59.55-.416l9.662 5.589c.347.242.556.637.56 1.06V36c0 .405-.245.612-.549.416zm13.083 7.557l-9.68-5.589a1.31 1.31 0 0 1-.55-1.049V26.361c0-.406.246-.594.55-.416l9.68 5.603c.34.242.544.631.55 1.049v10.96c-.018.405-.264.59-.55.416zm-26.477.187l-9.645-5.584a1.324 1.324 0 0 1-.549-1.053V26.55c0-.406.246-.59.55-.416l9.644 5.585c.339.244.542.634.549 1.052v10.975c0 .405-.246.593-.55.416zm13.394 7.745l-9.673-5.585a1.324 1.324 0 0 1-.55-1.052V34.293c0-.405.246-.59.55-.416l9.662 5.585c.339.244.543.635.55 1.053v10.974c.01.405-.235.593-.539.416z" fill="#DAE5FB"/><path d="M89.686 51.178l-9.663-5.588a1.31 1.31 0 0 1-.55-1.05V33.567c0-.405.246-.593.55-.416l9.663 5.585c.338.244.542.635.549 1.053v10.974c.018.405-.246.59-.55.416z" fill="#429DFC"/><path d="M101.45 59.458l-9.68-5.585a1.31 1.31 0 0 1-.55-1.05V41.847c0-.402.246-.59.55-.413l9.68 5.585c.34.242.544.632.55 1.05v10.97c-.018.409-.264.597-.55.42zm-26.477.517l-9.645-5.585a1.31 1.31 0 0 1-.549-1.049V42.363c0-.401.246-.59.55-.412l9.644 5.585c.34.242.543.631.549 1.049v10.978c0 .401-.246.59-.55.412zm26.477 24.152L65.329 63.245a1.324 1.324 0 0 1-.549-1.053V59.66c0-.405.246-.593.55-.416l36.12 20.886c.34.242.543.632.549 1.05v2.531c-.018.405-.264.593-.55.416zm-9.294.593L65.473 69.308a1.31 1.31 0 0 1-.55-1.05v-1.262c0-.405.246-.593.55-.416l26.683 15.424c.34.244.543.634.55 1.052v1.256c0 .408-.246.596-.55.408zm0 4.775L65.473 74.068a1.31 1.31 0 0 1-.55-1.05v-1.254c0-.406.246-.59.55-.416L92.156 86.77c.34.245.543.635.55 1.053v1.255c0 .405-.246.59-.55.416z" fill="#DAE5FB"/><path d="M87.12 91.347L65.474 78.828a1.31 1.31 0 0 1-.55-1.049v-1.255c0-.405.246-.59.55-.416L87.12 88.623c.339.245.542.635.549 1.053v1.255c0 .405-.246.59-.55.416z" fill="#429DFC"/><path d="M160.912 118.722l-52.15-30.138a1.31 1.31 0 0 1-.55-1.05v-2.531c0-.406.247-.59.55-.416l52.15 30.156c.34.242.544.632.55 1.05v2.531c0 .398-.246.586-.55.398zm-5.14 3.01l-46.844-27.086a1.31 1.31 0 0 1-.549-1.049v-1.255c0-.405.246-.59.55-.416l46.843 27.082c.339.244.542.634.549 1.052v1.256c0 .405-.246.59-.55.416zm0 4.76L108.928 99.41a1.324 1.324 0 0 1-.549-1.053v-1.255c0-.405.246-.59.55-.416l46.843 27.1c.34.242.543.632.549 1.05v1.254c0 .391-.246.59-.55.402z" fill="#DAE5FB"/><path d="M147.088 126.231l-38.16-22.065a1.324 1.324 0 0 1-.549-1.052v-1.255c0-.405.246-.59.55-.416l38.159 22.065c.338.243.542.632.55 1.049v1.255c0 .409-.25.593-.55.42z" fill="#429DFC"/><path d="M88.367 67.72l-9.673-5.585a1.31 1.31 0 0 1-.55-1.05V50.108c0-.401.246-.59.55-.412l9.662 5.585c.34.242.544.632.55 1.049v10.978c.01.413-.235.59-.539.413zm13.083 7.556l-9.68-5.589a1.31 1.31 0 0 1-.55-1.049V57.664c0-.405.246-.593.55-.416l9.68 5.585c.34.244.543.634.55 1.052V74.86c-.018.405-.264.59-.55.416zm59.462 34.404l-52.15-30.168a1.31 1.31 0 0 1-.55-1.05V61.267c0-.405.247-.593.55-.415L160.912 91c.339.244.542.634.55 1.052v17.197c0 .405-.246.59-.55.43zM115.9 58.622c-4.429-2.56-8.034-8.808-8.034-13.93 0-5.121 3.612-7.201 8.034-4.644 4.421 2.557 8.03 8.811 8.03 13.93 0 5.118-3.605 7.205-8.03 4.644zm0-15.89c-3.15-1.809-5.711-.336-5.711 3.302 0 3.64 2.56 8.085 5.71 9.904 3.15 1.82 5.712.34 5.712-3.302 0-3.643-2.569-8.066-5.711-9.904z" fill="#DAE5FB"/><path d="M115.9 58.622c-4.429-2.56-8.034-8.808-8.034-13.93 0-5.121 3.612-7.201 8.034-4.644v2.684c-3.15-1.809-5.711-.336-5.711 3.302 0 3.64 2.56 8.085 5.71 9.904 3.15 1.82 5.712.34 5.712-3.302l2.319 1.342c-.004 5.122-3.605 7.205-8.03 4.644z" fill="#429DFC"/><path d="M134.633 69.46c-4.429-2.562-8.03-8.812-8.03-13.93 0-5.119 3.612-7.206 8.03-4.645 4.418 2.561 8.03 8.808 8.03 13.93s-3.601 7.205-8.03 4.644zm0-15.89c-3.15-1.81-5.711-.34-5.711 3.302s2.561 8.08 5.711 9.903c3.15 1.824 5.71.34 5.71-3.302 0-3.643-2.56-8.084-5.71-9.904z" fill="#DAE5FB"/><path d="M134.633 69.46c-4.429-2.562-8.03-8.812-8.03-13.93 0-5.119 3.612-7.206 8.03-4.645v2.684c-3.15-1.809-5.711-.34-5.711 3.303 0 3.642 2.561 8.08 5.711 9.903 1.17.677 2.294.92 3.251.724l1.326 2.97c-1.348.285-2.93-.058-4.577-1.01z" fill="#429DFC"/><path d="M153.37 80.29c-4.429-2.562-8.03-8.812-8.03-13.93 0-5.119 3.612-7.206 8.03-4.645 4.418 2.561 8.044 8.808 8.044 13.93s-3.612 7.205-8.044 4.644zm0-15.891c-3.147-1.809-5.711-.34-5.711 3.302 0 3.643 2.564 8.081 5.71 9.904 3.147 1.823 5.712.34 5.712-3.302 0-3.643-2.561-8.085-5.711-9.904z" fill="#DAE5FB"/><path d="M146.38 71.54a14.848 14.848 0 0 1-1.04-5.18c0-5.122 3.612-7.206 8.03-4.645v2.684c-3.147-1.809-5.711-.34-5.711 3.302.027 1.262.282 2.508.751 3.68l-2.03.158z" fill="#429DFC"/><ellipse fill="#DAE5FB" opacity=".4" cx="123.096" cy="168.992" rx="7.993" ry="4.8"/><ellipse fill="#DAE5FB" opacity=".4" cx="36.312" cy="170.821" rx="7.993" ry="4.8"/><ellipse fill="#DAE5FB" opacity=".4" cx="7.993" cy="127.849" rx="7.993" ry="4.8"/><path d="M126.854 168.176c-.525.433-1.3.036-1.34.076a22.69 22.69 0 0 1-1.937 1.643c-.326.262-.837.615-.744 1.118.164.903 1.58.627 2.116.364.536-.262.969-.728 1.477-1.052.357-.23.714-.346.772-.813.032-.295-.25-1.347-.344-1.336z" fill="#38226D"/><path d="M127.19 169.312c-.071.444-.421.568-.779.794-.515.324-.965.794-1.501 1.067-.536.273-1.723.51-2.07-.134.19.87 1.58.597 2.11.324.528-.273.968-.729 1.476-1.053.357-.23.714-.346.772-.812.002-.062 0-.124-.008-.186z" fill="#9C73FF"/><path d="M122.297 166.45c-.526.436-1.43-.04-1.484 0a19.46 19.46 0 0 1-1.73 1.59c-.325.263-.836.616-.743 1.12.164.899 1.58.622 2.116.363.536-.258.969-.728 1.476-1.052.358-.23.715-.364.772-.812.032-.296-.314-1.22-.407-1.21z" fill="#38226D"/><path d="M122.686 167.52c-.057.437-.414.568-.772.801-.514.325-.968.794-1.501 1.071-.533.277-1.727.507-2.073-.138.19.87 1.58.597 2.109.324.529-.273.972-.728 1.476-1.053.358-.23.715-.364.772-.808a.709.709 0 0 0-.01-.197z" fill="#9C73FF"/><path d="M126.883 148.43c-.025.81-.272 4.32-.382 6.193-.111 1.872-.136 4.137-.136 4.137s.314 1.355.518 2.947c.204 1.592 0 6.618 0 6.618a1.22 1.22 0 0 1-1.344 0s-.84-4.006-1.23-5.828c-.39-1.82-.454-2.859-.657-3.98-.243-1.36-.773-7.7-.773-7.7h-.21l-.562 7.157a8.04 8.04 0 0 1 .358 1.624c.154 1.17-.161 7.033-.161 7.033a1.365 1.365 0 0 1-1.451-.062s-1.405-7.769-1.405-8.949c0-.783.132-11.094.132-11.094l7.303 1.905z" fill="#023F7E"/><path d="M124.981 132.798s-.089 1.763-.05 1.92c.04.156.794.674 1.016.856.221.182-1.198 1.61-1.888 1.934-.69.324-2.86-.528-2.91-1.621-.05-1.093.358-2.01.715-2.058.358-.047 3.117-1.03 3.117-1.03zm-4.74 3.271c-.103-.776.4-1.515-.085-2.134-1.709 1.704-1.495 6.22-1.88 9.105-1.27 1.352-3.818 2.681-4.537 3.013-.132.058-.243.123-.218.265.097.481.3.934.594 1.323 1.687-.729 2.902-1.166 5.004-3.206.201-.224.38-.468.536-.728.608-1.821.758-6.294.586-7.638z" fill="#FFCEA9"/><path d="M125.174 135.02s-1.254 1.909-3.01 2.087c-.55-.554-.6-2.528.165-3.161 0 0-.715-.576-1.187-.467a2.518 2.518 0 0 0-1.072 1.41 11.683 11.683 0 0 0-.619 4.08c.029 1.871 0 7.59 0 7.59s.247 1.209 1.834 2.109c1.587.9 2.76.987 3.836.728.886-.211 1.62-.532 1.926-1.187-.078-1.311-.654-4.735-.44-6.382.215-1.646.558-2.88.644-4.214.086-1.333-.171-1.307-.825-1.78a10.186 10.186 0 0 0-1.252-.813z" fill="#F4F4F4"/><path d="M121.064 130.169c.207-1.37 1.176-2.408 2.559-2.328.708.04 1.371.364 1.844.903a2.75 2.75 0 0 1 .676 1.967 2.7 2.7 0 0 1-1.162 2.084 2.95 2.95 0 0 1-.214.6c-.49.583-1.973.944-2.399.882a1.275 1.275 0 0 1-1.104-.921c-.458-1.075-.315-2.51-.2-3.187z" fill="#FFCEA9"/><path d="M124.981 132.795l-.128-1.191s.958-2.528-1.305-2.044c-1.494.32-1.87.46-2.324-.56-.454-1.02 1.148-1.942 3.053-1.687 1.36.145 2.384 1.328 2.356 2.72-.05.751-.247 2.274-1.652 2.762z" fill="#3A2C6D"/><path d="M127.634 136.83c-.654-.19-.154-.033-.654-.19-1.71 1.705-1.498 4.63-1.884 7.522-.944 1.588-4.444 3.74-4.444 3.74-.042.31.061.401.44 1.02a15.01 15.01 0 0 0 5.205-3.42c.086-.08.207-.101.243-.21.597-1.844 1.265-7.118 1.094-8.462z" fill="#FFCEA9"/><path fill="#F4F4F4" d="M112.056 140.392l2.545 8.866 5.58 2.269-2.034-8.632z"/><path d="M121.528 147.968c-.082-.302-.296-.23-.54-.153-.261.11-.55.135-.825.073a2.5 2.5 0 0 1-.594-.408.705.705 0 0 0-.357-.105c0 .076.129.524.129.524h-1.348a.202.202 0 0 0-.219.1.21.21 0 0 0 .026.243.561.561 0 0 1-.082 0c-.25-.059-.358.335-.108.393.068.013.136.023.204.029-.164.066-.204.342 0 .364h.061c.03.009.063.009.093 0h.036a.23.23 0 0 0 .038.171.22.22 0 0 0 .148.092c.597.08 1.476.324 2.016-.179.37-.04.733-.14 1.072-.299.34-.142.35-.484.25-.845zm-6.105-.724h-.086a.214.214 0 0 0 .055-.221.208.208 0 0 0-.173-.144c-.125 0-1.383-.266-1.383-.266l-.154-.528c0-.029-.218.106-.225.11a.87.87 0 0 0-.38.64c-.015.366.113.723.358.991.229.229.535.359.855.365.15 0 .296 0 .429.029a.22.22 0 0 0 .164-.06.23.23 0 0 0 .072-.163h.039a.19.19 0 0 0 .09 0h.064c.214 0 .232-.269.085-.364h.208c.26.015.236-.393-.018-.39z" fill="#FFCEA9"/><path d="M119.53 137.224a1.343 1.343 0 0 1-.915-.416c.05-.655.872-3.143 2.527-3.329-.45.324-.807.764-1.033 1.275a16.753 16.753 0 0 0-.579 2.47zm8.4 3.289s-1.647.579-2.81-.394c-.124-.222.673-3.077.673-3.077s.693-1.457 1.787-.882c1.094.576.35 4.353.35 4.353z" fill="#EDEDED"/><g><path d="M30.536 139.245s.237 3.486.701 3.988c.464.503 2.041.845 2.041.845l1.217 1.964s-1.113-6.24-1.35-6.389c-.238-.15-2.61-.408-2.61-.408z" fill="#FFCEA9"/><path d="M32.87 135.363a1.335 1.335 0 0 0-1.689.502c-.449.729-.913 3.22-.953 3.642 0 0 .627.853 1.566.729l1.076-4.873z" fill="#EDEDED"/><path d="M36.455 170.186a2.66 2.66 0 0 0 1.967-.233c.471 0 3.043-1.067 3.392-.16.308.794-.806 1.53-1.4 1.672-1.298.31-2.26.943-2.783 1.052-.37.08-.89.131-1.198-.167-.35-.36-.327-1.69.022-2.164z" fill="#38226D"/><path d="M37.646 172.295c.523-.105 1.485-.728 2.784-1.052.497-.117 1.354-.652 1.443-1.29.115.729-.89 1.38-1.443 1.512-1.3.31-2.26.943-2.784 1.052-.37.08-.89.131-1.199-.167a.696.696 0 0 1-.17-.306c.39.29.898.384 1.37.251z" fill="#9C73FF"/><path d="M32.465 168.959c.662.18 1.369.096 1.967-.233.475 0 3.043-1.064 3.396-.157.304.794-.809 1.53-1.403 1.672-1.299.306-2.26.943-2.78 1.049-.39.08-.894.135-1.202-.164-.371-.36-.338-1.69.022-2.167z" fill="#38226D"/><path d="M33.646 171.057c.52-.11 1.484-.729 2.78-1.053.497-.116 1.357-.652 1.443-1.293.115.729-.89 1.38-1.444 1.515-1.299.306-2.26.944-2.78 1.05-.39.08-.894.134-1.202-.165a.757.757 0 0 1-.17-.305c.391.29.9.384 1.373.25z" fill="#9C73FF"/><path d="M32.183 161.864c.11-.937.31-1.86.594-2.761 0 0-.178-2.386-.267-4.648-.1-2.55-1.006-4.822-.293-6.869l7.949 1.737s-.371 10.25-.494 11.488a22.452 22.452 0 0 1-.37 2.874c-.372 1.985-.769 6.428-.769 6.428-.853.489-2.104.088-2.104.088s0-5.562.048-6.993c.067-1.749.123-1.614.123-1.614l-.268-4.352-.174-2.164s-.223 1.588-.371 3.005c-.126 1.238-.43 2.357-.772 4.662-.293 1.996-.598 6.072-.598 6.072-.853.484-2.004.15-2.004.15s-.46-5.37-.23-7.103z" fill="#429DFC"/><path d="M33.3 135.414c.613.029 1.07.185 1.147 0 .066-.312.113-.627.141-.944-.07-.175-.133-.364-.133-.364-.772-.463-1.014-1.282-1.114-2.236-.17-1.629.742-3.053 2.383-3.224 1.562-.16 2.709.918 3.017 2.393.163.729.494 2.109.048 3.307-.248.674-.568 1.206-.887 1.308a6.803 6.803 0 0 1-.924-.08s-.081.451-.137.728c-.056.277-.037.44.553.798.59.357-.89 1.093-1.856 1.016-.965-.076-2.056-.645-2.353-1.257-.337-.659-.308-1.467.115-1.445z" fill="#FFCEA9"/><path d="M34.187 135.505c-.17.415.264.925 1.418 1.278s1.254-.102 1.254-.102a22.96 22.96 0 0 1 2.227 1.136c.69.474.998 1.85 1.091 4.17.108 2.685.119 6.67.026 7.358 0 0-1.291 1.268-2.969 1.133-1.677-.135-4.453-1.574-5.117-2.684 0-2.353.3-2.736-.09-4.094-.89-3.107-1.358-4.371-.924-6.44.372-1.7.854-1.912 1.54-1.897.517.02 1.033.067 1.544.142z" fill="#F4F4F4"/><path d="M38.767 151.414l-.828-9.353 1.778-.925.694.571-.245 8.4v.531s.037.707-1.321 1.552c0 0-.022-.222-.04-.43l-.034-.364-.004.018z" fill="#FFCEA9"/><path d="M38.555 137.238c.917 0 1.485.46 1.726 1.847a48.87 48.87 0 0 1 .371 2.524 2.49 2.49 0 0 1-1.636.794c-1.114.12-1.433-.433-1.433-.433s-.119-1.44-.178-2.419c-.06-.98.015-2.29 1.15-2.313z" fill="#EDEDED"/><path d="M38.682 130.832s1.432-2.138-1.674-2.576c-2.227-.313-3.682 1.093-3.849 2.634-.16 1.457.761 2.983 1.425 3.587a2.753 2.753 0 0 0 1.938-.229c.036-.398.05-.798.04-1.198 0 0-1.087-2.259 2.12-2.218z" fill="#3A2C6D"/></g><g><path d="M8.446 86.255c-.315-.509-2.721-.842-3.512 1.197-.301.775-.255 2.753-.505 3.993-.25 1.24-.841 1.946-1.053 2.953-.21 1.007.133 2.699 2.56 2.996 2.427.298 4.296-.555 4.862-1.33.565-.773.583-2.418 0-3.3-.584-.882-1.046-1.602-1.031-2.753l-1.321-3.756z" fill="#3A2C6D"/><path d="M11.324 94.789s.57 4.035-.505 6.903c-1.074 2.867-.78-.735-.78-.735l.261-.857s.215-3.29.125-4.096c-.09-.807-.068-1.502-.125-1.566-.057-.065.211-.194.326-.208.114-.015.698.559.698.559z" fill="#FFCEA9"/><path d="M6.856 85.9s1.812-.52 2.907.46a2.697 2.697 0 0 1 .777 2.684c-.147.573-.44 1.354-.895 1.398-.455.043-2.789-4.541-2.789-4.541z" fill="#3A2C6D"/><path d="M6.165 90.846s.118 2.018.082 2.15c-.035.134-.794.295-1.006.47-.21.176 1.1 2.226 1.765 2.53.666.305 2.725-.472 2.864-1.497.133-.947-.587-1.681-.866-1.936a4.077 4.077 0 0 0-.57 0l-.06-.982c-.88-.283-2.209-.735-2.209-.735z" fill="#FFCEA9"/><path d="M5.886 93.208c-.566.09-1.214.391-1.303.717a6.73 6.73 0 0 0 .164 3.373c.49 1.297.82 2.125 1.103 2.684 0 0 2.452 1.054 4.432-.172 0 0 .133-1.394.143-2.15 1.826-1.595.265-3.56-1.281-5.086a2.91 2.91 0 0 0-.559 0s1.382 1.63.423 2.559c-2.055-.63-2.463-1.555-3.122-1.925z" fill="#F4F4F4"/><path d="M9.935 88.341c-.204-1.297-1.142-2.276-2.478-2.2a2.587 2.587 0 0 0-2.423 2.73c.048.8.466 1.53 1.131 1.975.047.196.115.386.204.567.476.552 1.733.903 2.148.907.358 0 .67-.33 1.006-.89.698-1.16.523-2.447.412-3.089z" fill="#FFCEA9"/><path d="M7.042 86.166c-.938.183-1.707.448-1.962 1.369-.175.634-.404 1.846-.186 2.355l.136.358 1.135.588s.53-.445.358-1.738a.922.922 0 0 1 .158-.492 1.45 1.45 0 0 0 .157-.394c.134-.35.398-.635.738-.795.844-.477 2.083-.065 2.255.107a2.462 2.462 0 0 0-2.789-1.358z" fill="#3A2C6D"/><path d="M5.345 127.077c.476.387 1.214.118 1.25.154.552.478 1.129.925 1.729 1.34.297.234.759.545.676.993-.15.8-1.432.552-1.915.309-.483-.244-.877-.653-1.332-.936-.325-.2-.648-.308-.716-.717-.014-.261.219-1.154.308-1.143z" fill="#38226D"/><path d="M5.062 128.041c.061.394.38.502.716.717.466.287.874.717 1.357.95.484.233 1.558.448 1.873-.122-.172.77-1.432.53-1.909.287-.476-.244-.877-.653-1.331-.936-.326-.2-.648-.308-.716-.717a.538.538 0 0 1 .01-.179z" fill="#9C73FF"/><path d="M8.668 126.421c.436.359 1.074.154 1.124.187.506.435 1.037.84 1.59 1.215.268.211.69.498.615.906-.136.717-1.31.51-1.75.284-.441-.226-.806-.595-1.225-.857-.297-.183-.59-.28-.637-.66.014-.374.11-.741.283-1.075z" fill="#38226D"/><path d="M8.392 127.335c.057.359.358.463.64.645.427.266.803.645 1.243.871.44.226 1.432.412 1.715-.11-.154.716-1.307.483-1.744.26-.436-.221-.805-.594-1.224-.856-.297-.183-.59-.28-.637-.66a.57.57 0 0 1 .007-.15z" fill="#9C73FF"/><path d="M11.227 104.312c-.211-1.638-.812-4.018-.812-4.018a4.846 4.846 0 0 1-1.816.448 14.734 14.734 0 0 1-2.745-.265 17.205 17.205 0 0 1-.967 1.498c-.473.656-1.393 2.093-1.17 4.602.146 1.641 1.073 8.601 1.073 8.601a13.013 13.013 0 0 0-.562 3.613c.085 1.455.276 2.902.573 4.33l.548 3.942s.716.527 1.25.154l-.065-3.87c.06-.947.154-2.345.215-3.226.1-1.452.358-3.76.433-4.333.075-.574.261-1.585.358-2.714.096-1.128.512-6.863.512-6.863l.06 1.075s.054 1.746.305 3.896c.25 2.15.34 3.104.34 3.104a4.662 4.662 0 0 0-.512 1.383c-.043.463-.576 4.14-.258 6.01l.652 4.757c.33.226.747.281 1.124.147l.383-4.792c.258-1.825.802-5.692.884-6.193.185-1.013.294-2.039.326-3.068.127-2.74.084-5.484-.129-8.218z" fill="#FFCEA9"/><path d="M5.85 99.968l-1.41 2.835s-2.148 3.15.078 11.25l-.419 2.509s4.218 2.71 7.042 0c0 0 .978-7.484.459-10.935a39.971 39.971 0 0 0-1.314-5.864s-.691.764-4.25.259" fill="#D0514D"/><path d="M14.671 101.982c-.36.015-.719.053-1.074.115a3.49 3.49 0 0 1-1.045.16c-.387 0-1.464-.537-2.388-1.185a11.026 11.026 0 0 1-2.563-2.72 24.072 24.072 0 0 1-1.894-3.513c-.3-.867-.294-.276-.806-.29-.605 0-.927.208-.476 1.387a13.143 13.143 0 0 0 1.869 3.401 11.287 11.287 0 0 0 2.696 2.692c.92.645 1.914 1.176 2.96 1.584.301.122.494.29 1.039.591.546.313 1.16.49 1.79.513.522 0 .716-.1.751-.208.036-.108-.046-.226-.286-.248a3.144 3.144 0 0 1-1.113-.222s.519.075.834.09c.282.017.565-.005.841-.065.265-.064.412-.437.172-.466-.24-.028-.437 0-.902-.018a3.144 3.144 0 0 1-.716-.132c.312.002.625-.02.934-.068.25-.025.49-.12.687-.276.104-.086.122-.326-.182-.323a4.649 4.649 0 0 1-1.139.058c-.375-.054-.637-.144-.58-.194.058-.05.28 0 .595-.115.315-.114.53-.39.458-.552-.072-.16-.122-.057-.462.004z" fill="#FFCEA9"/><path d="M4.694 97.054s1.382.072 2.166-.792l-.852-1.792s-.39-.986-1.31-.742-.935 1.552-.004 3.326zm4.45-4.484s1.12-.358 2.309 2.15l-.444.27s-1.17-1.785-1.865-2.42z" fill="#EDEDED"/></g><path d="M28.319 39.339L8.512 27.736l-.075-.044c-.558-.3-1.313-.246-2.147.24-1.708 1-3.093 3.43-3.093 5.439 0 1.033.376 1.747.974 2.055l20.075 11.738 4.073-7.825z" fill="#D0514D"/><ellipse fill="#892724" transform="rotate(-60 26.388 43.401)" cx="26.388" cy="43.401" rx="4.426" ry="2.552"/><path fill="#DAE5FB" d="M35.17 52.65l-10.505-6.178v-4.337l10.505 6.182z"/><path fill="#C4C7D6" d="M35.06 48.078l-10.395-5.943 2.394-1.371 10.395 5.946z"/><ellipse fill="url(#a)" transform="rotate(-30 49.497 55.798)" cx="49.497" cy="55.798" rx="13.133" ry="22.759"/><path d="M51.842 77.404C41.147 71.146 32.43 55.874 32.43 43.358c0-12.515 8.703-17.603 19.412-11.346 10.709 6.258 19.412 21.53 19.412 34.042s-8.714 17.604-19.412 11.35zm0-38.224c-7.32-4.283-13.272-.8-13.272 7.762 0 8.564 5.953 19.014 13.272 23.312 7.319 4.298 13.272.797 13.272-7.762 0-8.56-5.953-19.032-13.272-23.312z" fill="#892724"/><path d="M49.101 78.774C38.403 72.516 29.69 57.244 29.69 44.729s8.7-17.603 19.412-11.345c10.713 6.257 19.413 21.53 19.413 34.04 0 12.512-8.718 17.607-19.413 11.35zm0-38.222c-7.319-4.284-13.272-.802-13.272 7.761s5.953 19.013 13.272 23.31c7.32 4.299 13.273.799 13.273-7.76 0-8.56-5.954-19.032-13.273-23.311z" fill="#D0514D"/></g></svg>