<svg width="153" height="75" xmlns="http://www.w3.org/2000/svg" xmlns:xlink="http://www.w3.org/1999/xlink"><defs><path id="a" d="M0 .54h39.988v32.422H0z"/><path id="c" d="M.16.143h66.287v32.819H.161z"/></defs><g fill="none" fill-rule="evenodd"><g transform="translate(0 21)"><mask id="b" fill="#fff"><use xlink:href="#a"/></mask><path d="M39.59 32.574h-8.182a.4.4 0 01-.398-.4V.94a.4.4 0 01.398-.4h8.181a.4.4 0 01.399.4v31.234a.4.4 0 01-.399.4M15.417.956v15.616c.003 4.098-3.306 7.42-7.388 7.42a7.33 7.33 0 01-3.36-.812.403.403 0 00-.53.165L.054 30.448a.4.4 0 00.15.551 16.228 16.228 0 007.615 2c9.116.116 16.576-7.525 16.576-16.676V.956a.4.4 0 00-.399-.4h-8.18a.4.4 0 00-.4.4z" fill="#555" mask="url(#b)"/></g><path d="M49.143 22.28A1.329 1.329 0 0047 23.329v30.271c0 .222.18.401.4.401h8.196a.4.4 0 00.4-.4V40.04L63 33.085 49.143 22.28" fill="#555"/><g transform="translate(87 21)"><mask id="d" fill="#fff"><use xlink:href="#c"/></mask><path d="M13.796.553L.56.544a.4.4 0 00-.398.4v30.028c0 .885.714 1.602 1.595 1.602l12.04.004v-.004c8.85-.208 15.96-7.294 15.96-16.01 0-8.717-7.11-15.803-15.96-16.011m0 23.235v-.004H9.14V9.347h4.657v-.009c3.895.204 6.989 3.36 6.989 7.226 0 3.865-3.094 7.022-6.989 7.224M50.09.143c-9.034 0-16.358 7.35-16.358 16.418 0 9.067 7.324 16.418 16.358 16.418s16.357-7.351 16.357-16.418C66.447 7.493 59.124.143 50.09.143m0 23.834c-4.08 0-7.387-3.32-7.387-7.416 0-4.095 3.307-7.415 7.387-7.415s7.387 3.32 7.387 7.415c0 4.096-3.307 7.416-7.387 7.416" fill="#555" mask="url(#d)"/></g><path d="M77.49 22a.799.799 0 00-.49.167L63 33.084l7.003 6.955V53.6c0 .222.18.401.4.401h8.198a.4.4 0 00.399-.4V23.326c0-.734-.594-1.327-1.327-1.327h-.183z" fill="#555"/><path d="M56 40.071l6.718 6.81a.396.396 0 00.565 0L70 40.072 63 33l-7 7.071" fill="#555"/></g></svg>