<svg width="295" height="52" fill="none" xmlns="http://www.w3.org/2000/svg"><path d="M36.26 47.874c-3.885-2.434-6.745-10.835-6.745-20.815 0-.367.001-.728.01-1.088l.005.004c-10.802-1.698-18.608-6.353-18.807-11.856l-.033.063C8.046 17.47 6.538 21.27 6.538 25.318c0 11.916 13.071 21.678 29.652 22.542l.07.014zM1.544 26.188c0-13.332 16.582-24.142 37.037-24.142s37.037 10.81 37.037 24.143c0 13.332-16.581 24.142-37.037 24.142-20.455 0-37.037-10.81-37.037-24.143zM38.581 5.53c3.95 0 7.307 5.993 8.552 14.357l.005-.012c7.682-1.196 13.062-3.958 13.062-7.17 0-4.311-9.68-7.8-21.619-7.8s-21.618 3.49-21.618 7.8c0 3.212 5.378 5.972 13.062 7.17l.004.012c1.245-8.362 4.604-14.357 8.552-14.357zm2.391 42.331c16.58-.864 29.653-10.626 29.653-22.541 0-4.05-1.51-7.85-4.153-11.137l-.033-.063c-.199 5.503-8.003 10.158-18.807 11.856l.005-.004c.007.36.01.721.01 1.088 0 9.98-2.863 18.38-6.744 20.815l.069-.014zm-2.39-27.352c1.77 0 3.488-.076 5.133-.221l-.002.001c-.818-5.361-2.807-9.144-5.132-9.144-2.324 0-4.312 3.783-5.132 9.144l-.002-.001c1.645.145 3.364.22 5.134.22zm0 19.852c2.972 0 5.397-6.19 5.527-13.955l.015.005a60.362 60.362 0 01-5.543.253c-1.898 0-3.752-.087-5.543-.253l.017-.005c.128 7.766 2.553 13.955 5.526 13.955zM190.533 26.189c0-10.191 8.257-18.451 18.44-18.451 10.188 0 18.443 8.261 18.443 18.45 0 10.193-8.257 18.451-18.443 18.451-10.183 0-18.44-8.26-18.44-18.45zm18.44 11.684c5.688 0 10.299-5.232 10.299-11.686 0-6.452-4.611-11.687-10.299-11.687-5.685 0-10.294 5.233-10.294 11.687s4.61 11.686 10.294 11.686zM248.341 15.425v28.377h-7.769V15.425h.026-10.866V9.008h29.448v6.415H248.341v.002zM268.578 35.974l-.008.008-2.98 7.821h-9.074L270.861 9.01h9.67l14.347 34.793h-9.076l-2.98-7.821-.008-.008h-14.236zm7.12-5.872h4.889l-.003.001-4.853-12.734h-.068l-4.856 12.734-.002-.001h4.893zM105.114 15.425v28.377h-7.77V15.425h.026-10.867V9.008h29.449v6.415h-10.838v.002zM117.941 26.189c0-10.191 8.257-18.451 18.443-18.451 10.185 0 18.442 8.261 18.442 18.45 0 10.193-8.257 18.451-18.442 18.451-10.186 0-18.443-8.26-18.443-18.45zm18.443 11.684c5.686 0 10.298-5.232 10.298-11.686 0-6.452-4.611-11.687-10.298-11.687s-10.297 5.233-10.297 11.687 4.61 11.686 10.297 11.686zM172.679 43.802h3.94V30.59l13.554-21.582h-9.072l-8.422 14.624-8.421-14.624h-9.075l13.556 21.582V43.8h3.94v.002z" fill="#656565"/></svg>