<svg width="133" height="75" xmlns="http://www.w3.org/2000/svg"><path d="M34.259 19.561h23.387v1.864H36.403V35.45h19.976v1.864H36.403v15.4H57.89v1.863H34.259V19.561zm25.482 0h2.485l11.012 15.4 11.255-15.4L99.803 0 74.65 36.58l12.96 17.998H85.03l-11.791-16.38-11.84 16.38h-2.534l13.058-17.999-12.18-17.018zm28.796 1.864V19.56h26.652v1.864h-12.278v33.153h-2.144V21.425h-12.23zM5 19.56h2.68L44.633 75 29.362 54.578 7.242 22.209l-.098 32.369H5V19.561zm109.973 32.591a.759.759 0 01-.766-.78c0-.44.328-.78.766-.78.444 0 .767.34.767.78s-.323.78-.767.78zm2.107-2.052h1.147c.016.623.47 1.042 1.137 1.042.746 0 1.168-.45 1.168-1.293v-5.34h1.168v5.345c0 1.518-.876 2.392-2.326 2.392-1.36 0-2.294-.848-2.294-2.146zm6.148-.068h1.157c.1.717.798 1.173 1.804 1.173.939 0 1.627-.487 1.627-1.157 0-.576-.438-.922-1.434-1.157l-.97-.236c-1.36-.319-1.98-.979-1.98-2.088 0-1.346 1.094-2.24 2.737-2.24 1.527 0 2.643.894 2.711 2.166h-1.137c-.11-.696-.714-1.13-1.59-1.13-.923 0-1.538.445-1.538 1.125 0 .54.396.848 1.376 1.078l.83.205c1.543.36 2.179.989 2.179 2.125 0 1.445-1.116 2.35-2.9 2.35-1.668 0-2.789-.864-2.872-2.214z" fill="#555" fill-rule="nonzero"/></svg>