<svg width="113" height="132" xmlns="http://www.w3.org/2000/svg"><g fill="none"><ellipse fill="#D2E8FE" opacity=".5" cx="56.5" cy="121.898" rx="56.5" ry="10.102"/><rect fill="#429DFC" x="25.867" y="25.592" width="51.735" height="24.245" rx="12.122"/><path fill="#000" opacity=".1" d="M31.313 43.102h42.205v1.347H31.313z"/><path fill="#000" opacity=".3" d="M31.313 29.633h42.205v16.163H31.313z"/><ellipse fill="#000" opacity=".1" cx="40.843" cy="36.367" rx="5.446" ry="5.388"/><ellipse fill="#000" opacity=".1" cx="63.988" cy="36.367" rx="5.446" ry="5.388"/><path fill="#429DFC" d="M47.651 49.837h9.53v5.388h-9.53z"/><path fill="#429DFC" d="M32.675 52.531h36.759v29.633H32.675zm0 35.02h39.482v4.041H32.675zm6.807 13.11v16.523h6.807V95.632h-6.807zm20.422-5.028v21.551h6.807V95.632zM27.229 57.918v7.028a9.8 9.8 0 0 0-4.881 2.435 11.974 11.974 0 0 0-2.906 4.41c-.85 2.129-1.263 4.494-1.431 6.73a39.81 39.81 0 0 0 .406 9.03h-7.342c-.312-4.2-.212-7.804.192-10.898.454-3.488 1.293-6.328 2.357-8.637 2.127-4.617 5.152-7.122 7.81-8.482 3.157-1.616 5.795-1.616 5.795-1.616z"/><path fill="#000" opacity=".3" d="M39.482 95.633h6.807v5.388h-6.807zm0 9.428h6.807v6.735h-6.807zm0 10.776h6.807v1.347h-6.807zm20.422-20.204h6.807v5.388h-6.807zm0 9.428h6.807v6.735h-6.807zm0 10.776h6.807v1.347h-6.807zM29.952 57.918v7.003c-1.705.326-3.293 1.166-4.587 2.426l-.859-7.82c2.967-1.609 5.446-1.609 5.446-1.609zm-9.53 13.3c-.708 2.185-1.052 4.61-1.192 6.904l-5.616-1.916c.378-3.578 1.077-6.49 1.963-8.86l4.845 3.872z"/><path d="M76.241 57.918v7.028a9.8 9.8 0 0 1 4.881 2.435 11.974 11.974 0 0 1 2.906 4.41c.85 2.129 1.262 4.494 1.43 6.73a39.81 39.81 0 0 1-.405 9.03h7.342c.312-4.2.212-7.804-.192-10.898-.454-3.488-1.293-6.328-2.357-8.637-2.127-4.617-5.152-7.122-7.81-8.482-3.157-1.616-5.795-1.616-5.795-1.616z" fill="#429DFC"/><path d="M76.241 57.918v7.003c1.704.326 3.293 1.166 4.587 2.426l.859-7.82c-2.967-1.609-5.446-1.609-5.446-1.609zm6.807 13.3c.708 2.185 1.051 4.61 1.192 6.904l5.615-1.916c-.377-3.578-1.076-6.49-1.962-8.86l-4.845 3.872z" fill="#000" opacity=".3"/><path fill="#000" opacity=".1" d="M47.651 48.49h9.53v1.347h-9.53zm23.144 8.081v13.47c-.876-.52-1.362-1.201-1.361-1.91V58.48c-.001-.708.485-1.389 1.361-1.908zm-36.759 1.703v10.064c-.087.636-.567 1.237-1.361 1.703V56.57c.794.466 1.274 1.067 1.361 1.703zm1.362 23.67h32.675v1H35.398zm0 9.478h16.337v1H35.398zm16.337 0h16.337v1H51.735z"/><path fill="#429DFC" d="M36.759 4.041h1.361v21.551h-1.361zm29.952 0h1.361v21.551h-1.361z"/><ellipse fill="#000" opacity=".1" cx="38.12" cy="2.694" rx="2.723" ry="2.694"/><ellipse fill="#429DFC" cx="38.12" cy="2.694" rx="2.723" ry="2.694"/><ellipse fill="#000" opacity=".1" cx="66.711" cy="2.694" rx="2.723" ry="2.694"/><ellipse fill="#429DFC" cx="66.711" cy="2.694" rx="2.723" ry="2.694"/></g></svg>