<svg width="53" height="75" xmlns="http://www.w3.org/2000/svg"><path d="M34.722 67.948l18.04-3.903S46.253 20.013 46.2 19.72a.552.552 0 00-.528-.48c-.242 0-4.822-.34-4.822-.34s-3.188-3.185-3.598-3.527a.96.96 0 00-.302-.185l-2.285 52.76h.057zm-9.067-31.685s-2.025-1.06-4.435-1.06c-3.617 0-3.76 2.264-3.76 2.852 0 3.08 8.1 4.288 8.1 11.572 0 5.738-3.6 9.4-8.515 9.4-5.885 0-8.85-3.662-8.85-3.662L9.81 50.15s3.112 2.665 5.7 2.665c1.688 0 2.438-1.362 2.438-2.33 0-4.047-6.636-4.235-6.636-10.898-.085-5.592 3.928-11.04 12.068-11.04 3.143 0 4.688.903 4.688.903l-2.363 6.787-.05.026zm-1.35-26.188c.34 0 .678.095 1.012.338-2.46 1.162-5.16 4.097-6.27 9.98-1.64.532-3.232 1.012-4.722 1.444 1.298-4.462 4.433-11.737 9.98-11.737v-.025zm3.087 7.373v.337c-1.884.58-3.957 1.21-5.985 1.84 1.166-4.443 3.333-6.613 5.213-7.428.482 1.253.772 2.94.772 5.25zm1.348-5.585c1.735.184 2.853 2.167 3.573 4.387-.873.285-1.838.578-2.896.915v-.63c0-1.88-.24-3.428-.677-4.678v.006zm7.48 3.222c-.05 0-.15.052-.195.052-.045 0-.722.188-1.785.525-1.058-3.082-2.94-5.925-6.27-5.925h-.287C26.718 8.524 25.553 8 24.543 8c-7.765 0-11.475 9.692-12.638 14.615-2.985.913-5.157 1.59-5.4 1.685-1.688.532-1.735.58-1.93 2.175C4.387 27.63 0 61.632 0 61.632L33.903 68l2.317-52.915z" fill="#555" fill-rule="nonzero"/></svg>