<svg width="572" height="343" viewBox="0 0 572 343" fill="none" xmlns="http://www.w3.org/2000/svg">
<rect x="109" y="85" width="463" height="258" rx="20" fill="#E4EDF6"/>
<g filter="url(#filter0_d)">
<rect x="20" y="8" width="238.074" height="284.718" rx="17.5383" fill="white"/>
<rect x="53.584" y="215.918" width="171.317" height="41.8297" rx="5.9705" fill="#D0514D"/>
<path d="M127.396 235.076L125.546 235.643C125.476 235.265 125.287 234.922 124.978 234.614C124.67 234.305 124.217 234.151 123.62 234.151C123.132 234.151 122.734 234.285 122.426 234.554C122.117 234.813 121.963 235.126 121.963 235.494C121.963 236.141 122.346 236.539 123.113 236.688L124.59 236.972C125.526 237.151 126.252 237.524 126.769 238.091C127.287 238.659 127.546 239.325 127.546 240.092C127.546 240.967 127.197 241.733 126.501 242.39C125.814 243.037 124.889 243.36 123.725 243.36C123.058 243.36 122.456 243.261 121.918 243.062C121.381 242.863 120.948 242.599 120.62 242.271C120.291 241.932 120.033 241.579 119.844 241.211C119.665 240.833 119.555 240.445 119.515 240.047L121.426 239.539C121.476 240.106 121.695 240.579 122.083 240.957C122.481 241.335 123.033 241.524 123.739 241.524C124.277 241.524 124.695 241.405 124.993 241.166C125.302 240.927 125.456 240.614 125.456 240.226C125.456 239.917 125.342 239.654 125.113 239.435C124.894 239.206 124.58 239.052 124.172 238.972L122.695 238.674C121.839 238.494 121.162 238.141 120.665 237.614C120.167 237.086 119.918 236.43 119.918 235.643C119.918 234.708 120.277 233.922 120.993 233.285C121.719 232.648 122.59 232.33 123.605 232.33C124.212 232.33 124.754 232.414 125.232 232.584C125.71 232.753 126.093 232.982 126.381 233.27C126.67 233.549 126.894 233.837 127.053 234.136C127.212 234.434 127.327 234.748 127.396 235.076ZM135.912 243.136H129.285V232.554H135.912V234.494H131.345V236.912H135.479V238.748H131.345V241.196H135.912V243.136ZM147.003 243.136H144.838L140.032 235.629V243.136H137.972V232.554H140.54L144.943 239.554V232.554H147.003V243.136ZM151.475 241.226H153.117C154.042 241.226 154.803 240.937 155.4 240.36C155.997 239.783 156.296 238.947 156.296 237.853C156.296 236.758 155.997 235.922 155.4 235.345C154.803 234.758 154.047 234.464 153.131 234.464H151.475V241.226ZM153.191 243.136H149.415V232.554H153.206C154.748 232.554 156.002 233.026 156.968 233.972C157.943 234.917 158.43 236.211 158.43 237.853C158.43 239.485 157.943 240.773 156.968 241.718C155.992 242.664 154.734 243.136 153.191 243.136Z" fill="white"/>
<rect x="54.5133" y="146.473" width="169.956" height="36.7774" rx="5.59735" fill="white" stroke="#868686" stroke-width="0.746313"/>
<rect x="54.5133" y="86.8038" width="169.956" height="36.7774" rx="5.59735" fill="white" stroke="#868686" stroke-width="0.746313"/>
<rect x="53.5249" y="41.2178" width="119.03" height="17.8391" rx="8.91957" fill="#E4EDF6"/>
<rect x="287.926" y="8" width="238.074" height="284.718" rx="17.5383" fill="white"/>
<rect x="322.257" y="215.918" width="171.317" height="41.8297" rx="5.9705" fill="#429DFC"/>
<path d="M364.89 243.136H363.219L363.084 241.927C362.816 242.335 362.413 242.679 361.875 242.957C361.348 243.226 360.711 243.36 359.965 243.36C358.492 243.36 357.243 242.858 356.218 241.853C355.193 240.848 354.681 239.514 354.681 237.853C354.681 236.201 355.208 234.867 356.263 233.852C357.328 232.837 358.606 232.33 360.099 232.33C361.393 232.33 362.447 232.643 363.263 233.27C364.089 233.897 364.646 234.668 364.935 235.584L362.965 236.285C362.806 235.738 362.482 235.265 361.995 234.867C361.517 234.459 360.885 234.255 360.099 234.255C359.203 234.255 358.422 234.564 357.756 235.181C357.099 235.798 356.77 236.688 356.77 237.853C356.77 238.997 357.089 239.888 357.726 240.524C358.372 241.161 359.169 241.48 360.114 241.48C360.99 241.48 361.661 241.261 362.129 240.823C362.597 240.375 362.87 239.907 362.95 239.42H359.606V237.629H364.89V243.136ZM373.596 243.136H366.969V232.554H373.596V234.494H369.029V236.912H373.163V238.748H369.029V241.196H373.596V243.136ZM383.623 234.509H380.279V243.136H378.204V234.509H374.861V232.554H383.623V234.509ZM400.567 243.136H398.537V235.718L395.492 243.136H393.776L390.731 235.778V243.136H388.76V232.554H391.477L394.656 240.196L397.761 232.554H400.567V243.136ZM405.614 238.688L401.927 232.554H404.345L406.719 236.748L409.092 232.554H411.405L407.674 238.688V243.136H405.614V238.688ZM418.948 235.24C418.292 235.847 417.963 236.713 417.963 237.838C417.963 238.962 418.292 239.833 418.948 240.45C419.605 241.057 420.376 241.36 421.262 241.36C422.158 241.36 422.934 241.057 423.59 240.45C424.247 239.833 424.576 238.962 424.576 237.838C424.576 236.713 424.247 235.847 423.59 235.24C422.934 234.624 422.158 234.315 421.262 234.315C420.376 234.315 419.605 234.624 418.948 235.24ZM415.829 237.853C415.829 236.201 416.361 234.867 417.426 233.852C418.491 232.837 419.769 232.33 421.262 232.33C422.765 232.33 424.048 232.837 425.113 233.852C426.178 234.867 426.71 236.201 426.71 237.853C426.71 239.494 426.178 240.823 425.113 241.838C424.048 242.853 422.765 243.36 421.262 243.36C419.769 243.36 418.491 242.853 417.426 241.838C416.361 240.823 415.829 239.494 415.829 237.853ZM430.571 243.136H428.496V232.554H435.183V234.509H430.556V237.121H434.675V239.017H430.571V243.136ZM438.952 243.136H436.877V232.554H443.564V234.509H438.937V237.121H443.057V239.017H438.952V243.136ZM451.886 243.136H445.259V232.554H451.886V234.494H447.319V236.912H451.453V238.748H447.319V241.196H451.886V243.136ZM459.17 243.136L457.096 239.062H456.021V243.136H453.946V232.554H458.081C459.096 232.554 459.912 232.862 460.529 233.479C461.146 234.096 461.454 234.872 461.454 235.808C461.454 236.544 461.25 237.181 460.842 237.718C460.444 238.246 459.897 238.609 459.2 238.808L461.469 243.136H459.17ZM456.021 237.285H457.693C458.21 237.285 458.613 237.151 458.902 236.882C459.2 236.614 459.35 236.26 459.35 235.823C459.35 235.375 459.2 235.017 458.902 234.748C458.613 234.479 458.21 234.345 457.693 234.345H456.021V237.285Z" fill="white"/>
<rect x="322.279" y="146.473" width="169.956" height="36.7774" rx="5.59735" fill="white" stroke="#868686" stroke-width="0.746313"/>
<rect x="322.279" y="86.8038" width="169.956" height="36.7774" rx="5.59735" fill="white" stroke="#868686" stroke-width="0.746313"/>
<rect x="321.291" y="41.2178" width="119.03" height="17.8391" rx="8.91957" fill="#E4EDF6"/>
</g>
<defs>
<filter id="filter0_d" x="0" y="0" width="546" height="324.718" filterUnits="userSpaceOnUse" color-interpolation-filters="sRGB">
<feFlood flood-opacity="0" result="BackgroundImageFix"/>
<feColorMatrix in="SourceAlpha" type="matrix" values="0 0 0 0 0 0 0 0 0 0 0 0 0 0 0 0 0 0 127 0"/>
<feOffset dy="12"/>
<feGaussianBlur stdDeviation="10"/>
<feColorMatrix type="matrix" values="0 0 0 0 0 0 0 0 0 0 0 0 0 0 0 0 0 0 0.05 0"/>
<feBlend mode="normal" in2="BackgroundImageFix" result="effect1_dropShadow"/>
<feBlend mode="normal" in="SourceGraphic" in2="effect1_dropShadow" result="shape"/>
</filter>
</defs>
</svg>
