<svg width="532" height="345" fill="none" xmlns="http://www.w3.org/2000/svg"><rect y="24" width="532" height="284" rx="12" fill="#E4EDF6"/><circle cx="266.211" cy="26.21" r="26.21" fill="#F0B23A"/><path d="M275.499 36.694v-2.299a4.596 4.596 0 00-4.598-4.598h-9.197a4.597 4.597 0 00-4.598 4.598v2.3M266.303 25.199a4.598 4.598 0 100-9.196 4.598 4.598 0 000 9.196z" stroke="#fff" stroke-width="2.759" stroke-linecap="round" stroke-linejoin="round"/><path d="M279.475 276.828h-22.461a7.76 7.76 0 00-7.76 7.761v2.442a7.76 7.76 0 007.76 7.76h22.461a7.76 7.76 0 007.76-7.76v-2.442a7.76 7.76 0 00-7.76-7.761z" fill="#429DFC"/><path opacity=".1" d="M284.421 289.922h-31.164v.865h31.164v-.865z" fill="#000"/><path opacity=".3" d="M284.421 279.966h-31.164v11.795h31.164v-11.795z" fill="#000"/><path opacity=".1" d="M260.237 288.623c2.241 0 4.058-1.792 4.058-4.004 0-2.211-1.817-4.003-4.058-4.003-2.241 0-4.058 1.792-4.058 4.003 0 2.212 1.817 4.004 4.058 4.004zM277.117 288.623c2.241 0 4.058-1.792 4.058-4.004 0-2.211-1.817-4.003-4.058-4.003-2.241 0-4.057 1.792-4.057 4.003 0 2.212 1.816 4.004 4.057 4.004z" fill="#000"/><path d="M272.302 294.791h-6.817v4.004h6.817v-4.004z" fill="#429DFC"/><path d="M281.067 296.955h-26.944v21.967h26.944v-21.967zM283.123 322.817h-29v2.814h29v-2.814zM259.317 332.639V345h4.978V328.877h-4.978v3.762zM274.142 328.877V345h4.977V328.877h-4.977z" fill="#429DFC"/><path d="M236.137 291l5.032 1.348a7.262 7.262 0 00.806 3.965 8.878 8.878 0 002.599 2.928c1.362 1.018 2.976 1.767 4.545 2.317a29.467 29.467 0 006.544 1.441l-1.41 5.261c-3.067-.582-5.628-1.345-7.766-2.228-2.411-.994-4.283-2.141-5.732-3.346-2.898-2.41-4.111-5.058-4.574-7.224-.551-2.572-.044-4.462-.044-4.462z" fill="#429DFC"/><path opacity=".3" d="M264.295 328.877h-4.978v4.004h4.978v-4.004zM264.295 336.019h-4.978v4.653h4.978v-4.653zM279.119 328.877h-4.977v4.004h4.977v-4.004zM279.119 336.019h-4.977v4.653h4.977v-4.653zM237.036 291l4.891 1.31a6.666 6.666 0 00.821 3.712l-5.624-.854c-.559-2.408-.088-4.168-.088-4.168zM244.758 300.343c1.434.92 3.111 1.629 4.73 2.169l-2.438 3.598c-2.497-.955-4.455-2.009-5.988-3.09l3.696-2.677z" fill="#000"/><path d="M286.261 300.742v5.21a7.27 7.27 0 013.621 1.805 8.87 8.87 0 012.156 3.268c.63 1.579.936 3.333 1.061 4.99a29.465 29.465 0 01-.301 6.694h5.446c.232-3.114.158-5.785-.142-8.079-.336-2.586-.959-4.691-1.748-6.403-1.578-3.422-3.822-5.279-5.794-6.287-2.342-1.198-4.299-1.198-4.299-1.198z" fill="#429DFC"/><path opacity=".3" d="M286.261 300.851v5.063a6.668 6.668 0 013.373 1.754l.631-5.654c-2.181-1.163-4.004-1.163-4.004-1.163zM291.239 310.761c.517 1.624.768 3.426.871 5.131l4.106-1.424c-.276-2.659-.787-4.823-1.434-6.584l-3.543 2.877z" fill="#000"/><path opacity=".1" d="M272.302 293.925h-6.817v.866h6.817v-.866zM282.257 300.093v9.955c-.557-.383-.866-.887-.865-1.411v-7.134c-.001-.523.308-1.026.865-1.41zM254.989 301.352v7.438c-.056.47-.361.914-.866 1.258v-9.955c.505.344.81.789.866 1.259zM280.418 318.705h-24.239v.325h24.239v-.325zM268.299 325.847h-12.12v.325h12.12v-.325z" fill="#000"/><path opacity=".1" d="M280.201 325.847h-12.119v.325h12.119v-.325z" fill="#000"/><path d="M258.127 260.705h-.866v16.123h.866v-16.123zM280.202 260.705h-.866v16.123h.866v-16.123z" fill="#429DFC"/><path opacity=".1" d="M258.181 262.004a2.002 2.002 0 100-4.004 2.002 2.002 0 000 4.004z" fill="#000"/><path d="M258.181 262.004a2.002 2.002 0 100-4.004 2.002 2.002 0 000 4.004z" fill="#429DFC"/><path opacity=".1" d="M279.282 262.004a2.003 2.003 0 10-.002-4.006 2.003 2.003 0 00.002 4.006z" fill="#000"/><path d="M279.282 262.004a2.003 2.003 0 10-.002-4.006 2.003 2.003 0 00.002 4.006z" fill="#429DFC"/><rect x="85" y="93" width="117.665" height="140.718" rx="8.668" fill="#fff"/><rect x="101.599" y="195.761" width="84.671" height="20.674" rx="2.951" fill="#D0514D"/><path d="M138.079 205.804l-.915.281a.957.957 0 00-.28-.509c-.152-.153-.376-.229-.671-.229-.241 0-.438.066-.59.199a.586.586 0 00-.229.465c0 .32.189.516.568.59l.73.14c.462.089.822.273 1.077.554.256.28.384.609.384.988 0 .433-.172.812-.517 1.136-.339.32-.796.48-1.372.48-.329 0-.627-.049-.892-.148a1.734 1.734 0 01-.642-.391 2.218 2.218 0 01-.384-.524 1.75 1.75 0 01-.162-.575l.944-.251c.025.281.133.514.325.701.197.187.47.28.819.28.265 0 .472-.059.619-.177a.558.558 0 00.229-.464.518.518 0 00-.17-.391.84.84 0 00-.464-.229l-.731-.148c-.423-.088-.757-.263-1.003-.523a1.366 1.366 0 01-.369-.974c0-.463.177-.851.531-1.166.359-.315.79-.472 1.291-.472.3 0 .568.042.804.125.236.084.426.197.568.34a1.709 1.709 0 01.502.892zm4.209 3.984h-3.276v-5.23h3.276v.959h-2.258v1.195h2.044v.907h-2.044v1.21h2.258v.959zm5.481 0H146.7l-2.376-3.711v3.711h-1.018v-5.23h1.269l2.176 3.46v-3.46h1.018v5.23zm2.21-.944h.812c.457 0 .834-.143 1.129-.428.295-.285.442-.698.442-1.239 0-.541-.147-.955-.442-1.24-.295-.29-.669-.435-1.122-.435h-.819v3.342zm.849.944h-1.867v-5.23h1.874c.763 0 1.382.233 1.859.701.482.467.723 1.106.723 1.918 0 .806-.241 1.443-.723 1.91-.482.467-1.104.701-1.866.701z" fill="#fff"/><rect x="102.058" y="161.438" width="83.998" height="18.177" rx="2.766" fill="#fff" stroke="#868686" stroke-width=".369"/><rect x="102.058" y="131.948" width="83.998" height="18.177" rx="2.766" fill="#fff" stroke="#868686" stroke-width=".369"/><rect x="101.569" y="109.417" width="58.829" height="8.817" rx="4.408" fill="#E4EDF6"/><rect x="337.419" y="93" width="117.665" height="140.718" rx="8.668" fill="#fff"/><rect x="354.387" y="195.761" width="84.671" height="20.674" rx="2.951" fill="#429DFC"/><path d="M375.458 209.788h-.827l-.066-.597a1.556 1.556 0 01-.597.509c-.261.132-.576.199-.945.199-.728 0-1.345-.249-1.851-.745-.507-.497-.76-1.156-.76-1.977 0-.817.26-1.476.782-1.977a2.648 2.648 0 011.896-.753c.639 0 1.16.155 1.564.465.408.31.683.691.826 1.143l-.974.347a1.405 1.405 0 00-.479-.701c-.237-.201-.549-.302-.937-.302-.443 0-.829.152-1.159.457-.324.305-.486.745-.486 1.321 0 .565.157 1.005.472 1.32.319.315.713.472 1.18.472.433 0 .765-.108.996-.324.231-.222.366-.453.406-.694h-1.653v-.885h2.612v2.722zm4.302 0h-3.275v-5.23h3.275v.959h-2.257v1.195h2.043v.907h-2.043v1.21h2.257v.959zm4.956-4.264h-1.653v4.264h-1.025v-4.264h-1.652v-.966h4.33v.966zm8.375 4.264h-1.004v-3.666l-1.505 3.666h-.848l-1.505-3.637v3.637h-.974v-5.23h1.343l1.571 3.777 1.535-3.777h1.387v5.23zm2.494-2.198l-1.822-3.032h1.195l1.173 2.073 1.173-2.073h1.143l-1.844 3.032v2.198h-1.018v-2.198zm6.59-1.704c-.324.3-.487.727-.487 1.283 0 .556.163.986.487 1.291.325.3.706.45 1.144.45.442 0 .826-.15 1.15-.45.325-.305.487-.735.487-1.291 0-.556-.162-.983-.487-1.283a1.623 1.623 0 00-1.15-.458c-.438 0-.819.153-1.144.458zm-1.542 1.291c0-.817.264-1.476.79-1.977a2.648 2.648 0 011.896-.753c.742 0 1.377.251 1.903.753.526.501.789 1.16.789 1.977 0 .811-.263 1.468-.789 1.969a2.658 2.658 0 01-1.903.753c-.738 0-1.37-.251-1.896-.753-.526-.501-.79-1.158-.79-1.969zm7.286 2.611h-1.025v-5.23h3.305v.966h-2.287v1.291h2.036v.937h-2.029v2.036zm4.143 0h-1.026v-5.23h3.305v.966h-2.287v1.291h2.036v.937h-2.028v2.036zm6.392 0h-3.275v-5.23h3.275v.959h-2.257v1.195h2.043v.907h-2.043v1.21h2.257v.959zm3.6 0l-1.025-2.014h-.531v2.014h-1.026v-5.23h2.044c.502 0 .905.152 1.21.457.305.305.457.689.457 1.151 0 .364-.101.679-.302.944-.197.261-.468.44-.812.539l1.122 2.139h-1.137zm-1.556-2.892h.826c.256 0 .455-.066.598-.199a.672.672 0 00.221-.524.682.682 0 00-.221-.531c-.143-.133-.342-.199-.598-.199h-.826v1.453z" fill="#fff"/><rect x="354.397" y="161.438" width="83.998" height="18.177" rx="2.766" fill="#fff" stroke="#868686" stroke-width=".369"/><rect x="354.397" y="131.948" width="83.998" height="18.177" rx="2.766" fill="#fff" stroke="#868686" stroke-width=".369"/><rect x="353.909" y="109.417" width="58.829" height="8.817" rx="4.408" fill="#E4EDF6"/><path d="M202.665 163.359c25.319 0 8.017-137.149 33.335-137.149" stroke="#545B73" stroke-width="2" stroke-dasharray="4 6"/><circle cx="236" cy="26.21" r="3" fill="#fff" stroke="#545B73" stroke-width="2"/><circle cx="202.665" cy="163.359" r="3" fill="#fff" stroke="#545B73" stroke-width="2"/></svg>