<svg width="619" height="368" fill="none" xmlns="http://www.w3.org/2000/svg"><rect x="64" y="20" width="463" height="308" rx="20" fill="#F9F9F9"/><path d="M284.45 198h17.975c16.489 0 25.985 16.56 15.971 27.32 13.813 9.919 4.489 31.522-16.921 31.522H271V211.45c0-7.428 6.022-13.45 13.45-13.45zM412.738 343h7.669c7.034 0 11.086 7.036 6.813 11.607 5.893 4.214 1.915 13.393-7.219 13.393H407v-19.286c0-3.156 2.569-5.714 5.738-5.714z" fill="#429DFC"/><path d="M263.729 145.464l28.483-47.032a5.044 5.044 0 018.628 0l33.129 54.688h-65.925a5.043 5.043 0 01-4.315-7.656z" fill="#D0514D"/><circle cx="63.211" cy="70.21" r="26.21" fill="#F0B23A"/><path d="M72.5 80.694v-2.299a4.599 4.599 0 00-4.599-4.598h-9.197a4.598 4.598 0 00-4.598 4.598v2.3M63.303 69.199a4.598 4.598 0 100-9.197 4.598 4.598 0 000 9.197z" stroke="#fff" stroke-width="2.759" stroke-linecap="round" stroke-linejoin="round"/><circle cx="63.211" cy="139.211" r="26.21" fill="#F0B23A"/><path d="M72.5 149.695v-2.3a4.598 4.598 0 00-4.599-4.598h-9.197a4.6 4.6 0 00-4.598 4.598v2.3M63.303 138.199a4.598 4.598 0 100-9.197 4.598 4.598 0 000 9.197z" stroke="#fff" stroke-width="2.759" stroke-linecap="round" stroke-linejoin="round"/><circle cx="63.211" cy="208.211" r="26.21" fill="#F0B23A"/><path d="M72.5 218.694v-2.299a4.598 4.598 0 00-4.599-4.598h-9.197a4.596 4.596 0 00-4.598 4.598v2.299M63.303 207.199a4.599 4.599 0 100-9.197 4.599 4.599 0 000 9.197z" stroke="#fff" stroke-width="2.759" stroke-linecap="round" stroke-linejoin="round"/><circle cx="64.21" cy="277.211" r="26.21" fill="#F0B23A"/><path d="M73.5 287.694v-2.299a4.598 4.598 0 00-4.599-4.598h-9.197a4.596 4.596 0 00-4.598 4.598v2.299M64.303 276.199a4.599 4.599 0 100-9.197 4.599 4.599 0 000 9.197z" stroke="#fff" stroke-width="2.759" stroke-linecap="round" stroke-linejoin="round"/><circle cx="526.5" cy="70.5" r="24.5" fill="#9BC369"/><path d="M536.952 62.333l-16.035 16.052-4.811-4.81" stroke="#fff" stroke-width="3.142" stroke-linecap="round" stroke-linejoin="round"/><circle cx="526.5" cy="139.5" r="24.5" fill="#D04D9C"/><path d="M534.25 131.75l-15.5 15.5M518.75 131.75l15.5 15.5" stroke="#fff" stroke-width="2.583" stroke-linecap="round" stroke-linejoin="round"/><circle cx="526.5" cy="208.5" r="24.5" fill="#9BC369"/><path d="M536.952 200.333l-16.035 16.052-4.811-4.811" stroke="#fff" stroke-width="3.142" stroke-linecap="round" stroke-linejoin="round"/><circle cx="526.5" cy="277.5" r="24.5" fill="#9BC369"/><path d="M536.952 269.333l-16.035 16.052-4.811-4.811" stroke="#fff" stroke-width="3.142" stroke-linecap="round" stroke-linejoin="round"/><g filter="url(#filter0_d)"><rect x="439" y="4" width="176" height="31" rx="8" fill="#fff"/></g><path d="M462.938 20.758l-3.5-5.684h1.652l2.576 4.424 2.576-4.424h1.568l-3.5 5.684V25h-1.372v-4.242zm6.262 2.646c.411.42.91.63 1.498.63a1.97 1.97 0 001.484-.63c.411-.43.616-1.022.616-1.778 0-.747-.205-1.33-.616-1.75a1.95 1.95 0 00-1.484-.644c-.588 0-1.087.215-1.498.644-.401.42-.602 1.003-.602 1.75 0 .756.201 1.349.602 1.778zm-.98-4.326c.654-.681 1.48-1.022 2.478-1.022.999 0 1.82.34 2.464 1.022.654.672.98 1.521.98 2.548 0 1.036-.322 1.895-.966 2.576-.644.672-1.47 1.008-2.478 1.008-1.008 0-1.834-.336-2.478-1.008-.644-.681-.966-1.54-.966-2.576 0-1.027.322-1.876.966-2.548zm11.976 5.11a1.762 1.762 0 01-.812.77 2.772 2.772 0 01-1.176.252c-.766 0-1.377-.252-1.834-.756-.458-.513-.686-1.162-.686-1.946v-4.242h1.316v4.046c0 .504.121.92.364 1.246.252.327.639.49 1.162.49.522 0 .919-.154 1.19-.462.27-.317.406-.737.406-1.26v-4.06h1.316v5.488c0 .439.023.854.07 1.246h-1.26a4.652 4.652 0 01-.056-.812zm7.229-5.992v1.4a4.053 4.053 0 00-.574-.042c-1.232 0-1.848.69-1.848 2.072V25h-1.316v-6.734h1.288v1.176c.411-.859 1.083-1.288 2.016-1.288.15 0 .294.014.434.042zm9.341 7.014c-1.353 0-2.515-.467-3.486-1.4-.961-.933-1.442-2.193-1.442-3.78 0-1.064.243-1.997.728-2.8.485-.803 1.097-1.395 1.834-1.778a4.965 4.965 0 012.366-.588c1.12 0 2.063.285 2.828.854.775.56 1.288 1.325 1.54 2.296l-1.274.448c-.187-.747-.546-1.32-1.078-1.722-.532-.41-1.204-.616-2.016-.616-.971 0-1.801.345-2.492 1.036-.691.681-1.036 1.638-1.036 2.87 0 1.232.345 2.193 1.036 2.884.691.69 1.521 1.036 2.492 1.036.812 0 1.489-.215 2.03-.644.541-.439.919-1.017 1.134-1.736l1.218.448c-.271.961-.793 1.736-1.568 2.324-.765.579-1.703.868-2.814.868zm7.175-1.806c.41.42.91.63 1.498.63s1.082-.21 1.484-.63c.41-.43.616-1.022.616-1.778 0-.747-.206-1.33-.616-1.75a1.952 1.952 0 00-1.484-.644c-.588 0-1.088.215-1.498.644-.402.42-.602 1.003-.602 1.75 0 .756.2 1.349.602 1.778zm-.98-4.326c.653-.681 1.479-1.022 2.478-1.022.998 0 1.82.34 2.464 1.022.653.672.98 1.521.98 2.548 0 1.036-.322 1.895-.966 2.576-.644.672-1.47 1.008-2.478 1.008-1.008 0-1.834-.336-2.478-1.008-.644-.681-.966-1.54-.966-2.576 0-1.027.322-1.876.966-2.548zm8.921 2.03V25h-1.316v-6.734h1.288v.966c.448-.775 1.139-1.162 2.072-1.162.775 0 1.368.247 1.778.742.42.495.63 1.134.63 1.918V25h-1.316v-4.046c0-1.13-.522-1.694-1.568-1.694-.494 0-.882.177-1.162.532-.27.345-.406.784-.406 1.316zm12.314-2.842L521.508 25h-1.33l-2.73-6.734h1.484l1.918 5.194 1.932-5.194h1.414zm1.908 2.674h3.682c-.019-.504-.187-.915-.504-1.232-.317-.327-.765-.49-1.344-.49-.523 0-.952.173-1.288.518a1.804 1.804 0 00-.546 1.204zm3.878 1.75l1.134.392a3.019 3.019 0 01-1.092 1.54c-.532.392-1.176.588-1.932.588-.943 0-1.745-.322-2.408-.966-.653-.653-.98-1.53-.98-2.632 0-1.027.317-1.876.952-2.548.635-.672 1.391-1.008 2.268-1.008 1.017 0 1.811.322 2.38.966.569.635.854 1.489.854 2.562 0 .168-.009.308-.028.42h-5.068c.009.597.205 1.087.588 1.47.392.383.873.574 1.442.574.961 0 1.591-.453 1.89-1.358zm6.594-4.494v1.4a4.064 4.064 0 00-.574-.042c-1.232 0-1.848.69-1.848 2.072V25h-1.316v-6.734h1.288v1.176c.41-.859 1.082-1.288 2.016-1.288.149 0 .294.014.434.042zm.772 5.054l1.19-.42c.047.364.206.667.476.91.271.233.635.35 1.092.35.355 0 .635-.084.84-.252a.82.82 0 00.308-.644c0-.448-.289-.737-.868-.868l-1.148-.252c-.522-.112-.933-.336-1.232-.672a1.773 1.773 0 01-.448-1.218c0-.579.234-1.078.7-1.498a2.476 2.476 0 011.694-.63c.43 0 .812.065 1.148.196.336.121.598.285.784.49.187.205.327.397.42.574.094.177.164.36.21.546l-1.162.434a1.246 1.246 0 00-.098-.322 1.569 1.569 0 00-.224-.364.913.913 0 00-.42-.308 1.59 1.59 0 00-.658-.126c-.326 0-.597.089-.812.266-.205.177-.308.387-.308.63 0 .43.257.7.77.812l1.092.238c.598.13 1.055.373 1.372.728.327.345.49.77.49 1.274 0 .532-.219 1.013-.658 1.442-.429.43-1.031.644-1.806.644-.83 0-1.479-.205-1.946-.616-.466-.42-.732-.868-.798-1.344zM545.61 25h-1.302v-6.734h1.302V25zm-1.33-8.61a.943.943 0 01-.266-.672c0-.261.089-.485.266-.672a.917.917 0 01.672-.28c.262 0 .486.093.672.28.187.177.28.401.28.672a.915.915 0 01-.28.672.94.94 0 01-.672.266.942.942 0 01-.672-.266zm4.955 7.014c.411.42.91.63 1.498.63a1.97 1.97 0 001.484-.63c.411-.43.616-1.022.616-1.778 0-.747-.205-1.33-.616-1.75a1.95 1.95 0 00-1.484-.644c-.588 0-1.087.215-1.498.644-.401.42-.602 1.003-.602 1.75 0 .756.201 1.349.602 1.778zm-.98-4.326c.654-.681 1.48-1.022 2.478-1.022.999 0 1.82.34 2.464 1.022.654.672.98 1.521.98 2.548 0 1.036-.322 1.895-.966 2.576-.644.672-1.47 1.008-2.478 1.008-1.008 0-1.834-.336-2.478-1.008-.644-.681-.966-1.54-.966-2.576 0-1.027.322-1.876.966-2.548zm8.922 2.03V25h-1.316v-6.734h1.288v.966c.448-.775 1.139-1.162 2.072-1.162.775 0 1.368.247 1.778.742.42.495.63 1.134.63 1.918V25h-1.316v-4.046c0-1.13-.522-1.694-1.568-1.694-.494 0-.882.177-1.162.532-.27.345-.406.784-.406 1.316zM575.959 25h-1.106l-.126-1.4c-.243.439-.64.817-1.19 1.134-.551.317-1.214.476-1.988.476-.85 0-1.634-.191-2.352-.574-.719-.392-1.312-.99-1.778-1.792-.458-.803-.686-1.74-.686-2.814 0-1.073.242-2.011.728-2.814.485-.803 1.092-1.395 1.82-1.778a5.061 5.061 0 012.366-.574c1.064 0 1.988.275 2.772.826a4.06 4.06 0 011.624 2.17l-1.246.532c-.224-.719-.616-1.274-1.176-1.666-.551-.401-1.209-.602-1.974-.602-.962 0-1.788.34-2.478 1.022-.691.681-1.036 1.643-1.036 2.884 0 1.25.336 2.221 1.008 2.912.681.681 1.498 1.022 2.45 1.022.522 0 .984-.084 1.386-.252.41-.168.728-.387.952-.658.233-.28.406-.56.518-.84.121-.28.191-.56.21-.84h-3.444v-1.232h4.746V25zm3.355-1.596c.41.42.91.63 1.498.63s1.082-.21 1.484-.63c.41-.43.616-1.022.616-1.778 0-.747-.206-1.33-.616-1.75a1.952 1.952 0 00-1.484-.644c-.588 0-1.088.215-1.498.644-.402.42-.602 1.003-.602 1.75 0 .756.2 1.349.602 1.778zm-.98-4.326c.653-.681 1.479-1.022 2.478-1.022.998 0 1.82.34 2.464 1.022.653.672.98 1.521.98 2.548 0 1.036-.322 1.895-.966 2.576-.644.672-1.47 1.008-2.478 1.008-1.008 0-1.834-.336-2.478-1.008-.644-.681-.966-1.54-.966-2.576 0-1.027.322-1.876.966-2.548zm7.185 4.116c0-.579.187-1.04.56-1.386.374-.355.868-.574 1.484-.658l1.82-.266c.346-.047.518-.215.518-.504 0-.355-.121-.644-.364-.868-.242-.224-.606-.336-1.092-.336-.448 0-.802.126-1.064.378-.261.243-.415.57-.462.98l-1.26-.294c.066-.644.36-1.167.882-1.568.523-.41 1.148-.616 1.876-.616.952 0 1.657.233 2.114.7.458.457.686 1.045.686 1.764v3.374c0 .401.028.77.084 1.106h-1.288a5.618 5.618 0 01-.07-.91c-.186.299-.462.56-.826.784-.354.224-.802.336-1.344.336-.662 0-1.204-.196-1.624-.588-.42-.401-.63-.877-.63-1.428zm2.436.91c.588 0 1.06-.159 1.414-.476.355-.317.532-.821.532-1.512v-.308l-2.058.308c-.298.047-.536.154-.714.322-.177.168-.266.397-.266.686 0 .261.098.49.294.686.206.196.472.294.798.294zm6.628.896h-1.316V14.864h1.316V25z" fill="#626F8C"/><g filter="url(#filter1_d)"><rect x="4" y="4" width="117" height="31" rx="8" fill="#fff"/><path d="M26.683 20.758l-3.5-5.684h1.652l2.576 4.424 2.576-4.424h1.568l-3.5 5.684V25h-1.372v-4.242zm6.263 2.646c.41.42.91.63 1.498.63.587 0 1.082-.21 1.483-.63.411-.43.617-1.022.617-1.778 0-.747-.206-1.33-.616-1.75a1.951 1.951 0 00-1.484-.644c-.589 0-1.088.215-1.498.644-.402.42-.602 1.003-.602 1.75 0 .756.2 1.349.602 1.778zm-.98-4.326c.653-.681 1.479-1.022 2.477-1.022 1 0 1.82.34 2.465 1.022.653.672.98 1.521.98 2.548 0 1.036-.322 1.895-.966 2.576-.644.672-1.47 1.008-2.478 1.008-1.009 0-1.835-.336-2.479-1.008-.643-.681-.965-1.54-.965-2.576 0-1.027.322-1.876.965-2.548zm11.975 5.11a1.759 1.759 0 01-.812.77 2.772 2.772 0 01-1.176.252c-.766 0-1.377-.252-1.834-.756-.458-.513-.686-1.162-.686-1.946v-4.242h1.316v4.046c0 .504.121.92.364 1.246.252.327.64.49 1.162.49.523 0 .92-.154 1.19-.462.27-.317.406-.737.406-1.26v-4.06h1.316v5.488c0 .439.023.854.07 1.246h-1.26a4.722 4.722 0 01-.056-.812zm7.23-5.992v1.4a4.057 4.057 0 00-.575-.042c-1.231 0-1.847.69-1.847 2.072V25h-1.317v-6.734h1.288v1.176c.411-.859 1.083-1.288 2.017-1.288.149 0 .294.014.433.042zm8.374 5.04l3.024-8.162h1.442L60.19 25h-1.358l-3.738-9.926h1.456l2.996 8.162zM66.576 25h-1.302v-6.734h1.302V25zm-1.33-8.61a.941.941 0 01-.266-.672c0-.261.089-.485.266-.672a.916.916 0 01.672-.28c.262 0 .486.093.672.28.187.177.28.401.28.672a.916.916 0 01-.28.672.941.941 0 01-.672.266.941.941 0 01-.672-.266zm2.94 6.86l1.19-.42c.046.364.205.667.475.91.271.233.635.35 1.092.35.355 0 .635-.084.84-.252a.822.822 0 00.308-.644c0-.448-.289-.737-.868-.868l-1.148-.252c-.522-.112-.933-.336-1.232-.672a1.77 1.77 0 01-.448-1.218c0-.579.234-1.078.7-1.498.476-.42 1.041-.63 1.694-.63.43 0 .812.065 1.148.196.336.121.598.285.784.49.187.205.327.397.42.574.094.177.164.36.21.546l-1.162.434a1.286 1.286 0 00-.098-.322 1.604 1.604 0 00-.224-.364.916.916 0 00-.42-.308 1.592 1.592 0 00-.658-.126c-.326 0-.597.089-.812.266-.205.177-.308.387-.308.63 0 .43.257.7.77.812l1.092.238c.598.13 1.055.373 1.372.728.327.345.49.77.49 1.274 0 .532-.219 1.013-.658 1.442-.429.43-1.031.644-1.806.644-.83 0-1.479-.205-1.946-.616-.466-.42-.732-.868-.798-1.344zM76.446 25h-1.302v-6.734h1.302V25zm-1.33-8.61a.941.941 0 01-.266-.672c0-.261.09-.485.266-.672a.916.916 0 01.672-.28c.262 0 .486.093.672.28.187.177.28.401.28.672a.916.916 0 01-.28.672.941.941 0 01-.672.266.941.941 0 01-.672-.266zm5.333-.252v2.128h1.456v1.19H80.45v3.5c0 .317.07.55.21.7.15.15.392.224.728.224.196 0 .37-.019.518-.056v1.12c-.224.084-.522.126-.896.126-.578 0-1.036-.168-1.372-.504-.336-.336-.504-.807-.504-1.414v-3.696h-1.288v-1.19h.364c.346 0 .602-.093.77-.28.178-.196.266-.448.266-.756v-1.092h1.204zm4.53 7.266c.411.42.91.63 1.499.63.588 0 1.082-.21 1.484-.63.41-.43.616-1.022.616-1.778 0-.747-.206-1.33-.616-1.75a1.951 1.951 0 00-1.484-.644c-.588 0-1.088.215-1.498.644-.402.42-.602 1.003-.602 1.75 0 .756.2 1.349.602 1.778zM84 19.078c.654-.681 1.48-1.022 2.479-1.022.998 0 1.82.34 2.464 1.022.653.672.98 1.521.98 2.548 0 1.036-.322 1.895-.966 2.576-.644.672-1.47 1.008-2.478 1.008-1.008 0-1.834-.336-2.478-1.008-.644-.681-.966-1.54-.966-2.576 0-1.027.322-1.876.966-2.548zm11.344-.882v1.4a4.057 4.057 0 00-.574-.042c-1.232 0-1.848.69-1.848 2.072V25h-1.316v-6.734h1.288v1.176c.411-.859 1.083-1.288 2.016-1.288.15 0 .294.014.434.042zm.773 5.054l1.19-.42c.047.364.205.667.476.91.27.233.635.35 1.092.35.355 0 .635-.084.84-.252a.822.822 0 00.308-.644c0-.448-.29-.737-.868-.868l-1.148-.252c-.523-.112-.933-.336-1.232-.672a1.77 1.77 0 01-.448-1.218c0-.579.233-1.078.7-1.498.476-.42 1.04-.63 1.694-.63.43 0 .812.065 1.148.196.336.121.597.285.784.49.187.205.327.397.42.574.093.177.163.36.21.546l-1.162.434a1.286 1.286 0 00-.098-.322 1.608 1.608 0 00-.224-.364.917.917 0 00-.42-.308 1.592 1.592 0 00-.658-.126c-.327 0-.597.089-.812.266-.205.177-.308.387-.308.63 0 .43.257.7.77.812l1.092.238c.597.13 1.055.373 1.372.728.327.345.49.77.49 1.274 0 .532-.219 1.013-.658 1.442-.429.43-1.031.644-1.806.644-.83 0-1.48-.205-1.946-.616-.467-.42-.733-.868-.798-1.344z" fill="#626F8C"/></g><g filter="url(#filter2_d)"><rect x="229" y="312" width="133" height="31" rx="8" fill="#fff"/><path d="M251.938 328.758l-3.5-5.684h1.652l2.576 4.424 2.576-4.424h1.568l-3.5 5.684V333h-1.372v-4.242zm6.262 2.646c.411.42.91.63 1.498.63a1.97 1.97 0 001.484-.63c.411-.429.616-1.022.616-1.778 0-.747-.205-1.33-.616-1.75a1.952 1.952 0 00-1.484-.644c-.588 0-1.087.215-1.498.644-.401.42-.602 1.003-.602 1.75 0 .756.201 1.349.602 1.778zm-.98-4.326c.654-.681 1.48-1.022 2.478-1.022.999 0 1.82.341 2.464 1.022.654.672.98 1.521.98 2.548 0 1.036-.322 1.895-.966 2.576-.644.672-1.47 1.008-2.478 1.008-1.008 0-1.834-.336-2.478-1.008-.644-.681-.966-1.54-.966-2.576 0-1.027.322-1.876.966-2.548zm11.976 5.11a1.76 1.76 0 01-.812.77 2.772 2.772 0 01-1.176.252c-.766 0-1.377-.252-1.834-.756-.458-.513-.686-1.162-.686-1.946v-4.242h1.316v4.046c0 .504.121.919.364 1.246.252.327.639.49 1.162.49.522 0 .919-.154 1.19-.462.27-.317.406-.737.406-1.26v-4.06h1.316v5.488c0 .439.023.854.07 1.246h-1.26a4.65 4.65 0 01-.056-.812zm7.229-5.992v1.4a4.053 4.053 0 00-.574-.042c-1.232 0-1.848.691-1.848 2.072V333h-1.316v-6.734h1.288v1.176c.411-.859 1.083-1.288 2.016-1.288.15 0 .294.014.434.042zm8.375 5.04l3.024-8.162h1.442L285.444 333h-1.358l-3.738-9.926h1.456l2.996 8.162zm4.544-.042c0-.579.186-1.041.56-1.386.373-.355.868-.574 1.484-.658l1.82-.266c.345-.047.518-.215.518-.504a1.13 1.13 0 00-.364-.868c-.243-.224-.607-.336-1.092-.336-.448 0-.803.126-1.064.378-.262.243-.416.569-.462.98l-1.26-.294a2.179 2.179 0 01.882-1.568c.522-.411 1.148-.616 1.876-.616.952 0 1.656.233 2.114.7.457.457.686 1.045.686 1.764v3.374c0 .401.028.77.084 1.106h-1.288a5.505 5.505 0 01-.07-.91c-.187.299-.462.56-.826.784-.355.224-.803.336-1.344.336-.663 0-1.204-.196-1.624-.588-.42-.401-.63-.877-.63-1.428zm2.436.91c.588 0 1.059-.159 1.414-.476.354-.317.532-.821.532-1.512v-.308l-2.058.308c-.299.047-.537.154-.714.322-.178.168-.266.397-.266.686 0 .261.098.49.294.686.205.196.471.294.798.294zm9.05-5.908v1.4a4.064 4.064 0 00-.574-.042c-1.232 0-1.848.691-1.848 2.072V333h-1.316v-6.734h1.288v1.176c.41-.859 1.082-1.288 2.016-1.288.149 0 .294.014.434.042zm2.704 6.804h-1.302v-6.734h1.302V333zm-1.33-8.61a.944.944 0 01-.266-.672c0-.261.089-.485.266-.672a.916.916 0 01.672-.28c.262 0 .486.093.672.28.187.177.28.401.28.672a.916.916 0 01-.28.672.94.94 0 01-.672.266.944.944 0 01-.672-.266zm3.149 6.804c0-.579.187-1.041.56-1.386.374-.355.868-.574 1.484-.658l1.82-.266c.346-.047.518-.215.518-.504 0-.355-.121-.644-.364-.868-.242-.224-.606-.336-1.092-.336-.448 0-.802.126-1.064.378-.261.243-.415.569-.462.98l-1.26-.294c.066-.644.36-1.167.882-1.568.523-.411 1.148-.616 1.876-.616.952 0 1.657.233 2.114.7.458.457.686 1.045.686 1.764v3.374c0 .401.028.77.084 1.106h-1.288a5.615 5.615 0 01-.07-.91c-.186.299-.462.56-.826.784-.354.224-.802.336-1.344.336-.662 0-1.204-.196-1.624-.588-.42-.401-.63-.877-.63-1.428zm2.436.91c.588 0 1.06-.159 1.414-.476.355-.317.532-.821.532-1.512v-.308l-2.058.308c-.298.047-.536.154-.714.322-.177.168-.266.397-.266.686 0 .261.098.49.294.686.206.196.472.294.798.294zm7.076-7.966v2.128h1.456v1.19h-1.456v3.5c0 .317.07.551.21.7.15.149.392.224.728.224.196 0 .369-.019.518-.056v1.12c-.224.084-.522.126-.896.126-.578 0-1.036-.168-1.372-.504-.336-.336-.504-.807-.504-1.414v-3.696h-1.288v-1.19h.364c.346 0 .602-.093.77-.28.178-.196.266-.448.266-.756v-1.092h1.204zM319.38 333h-1.302v-6.734h1.302V333zm-1.33-8.61a.944.944 0 01-.266-.672c0-.261.089-.485.266-.672a.916.916 0 01.672-.28c.261 0 .485.093.672.28.187.177.28.401.28.672a.916.916 0 01-.28.672.944.944 0 01-.672.266.944.944 0 01-.672-.266zm4.955 7.014c.411.42.91.63 1.498.63a1.97 1.97 0 001.484-.63c.411-.429.616-1.022.616-1.778 0-.747-.205-1.33-.616-1.75a1.952 1.952 0 00-1.484-.644c-.588 0-1.087.215-1.498.644-.401.42-.602 1.003-.602 1.75 0 .756.201 1.349.602 1.778zm-.98-4.326c.653-.681 1.479-1.022 2.478-1.022.999 0 1.82.341 2.464 1.022.653.672.98 1.521.98 2.548 0 1.036-.322 1.895-.966 2.576-.644.672-1.47 1.008-2.478 1.008-1.008 0-1.834-.336-2.478-1.008-.644-.681-.966-1.54-.966-2.576 0-1.027.322-1.876.966-2.548zm8.922 2.03V333h-1.316v-6.734h1.288v.966c.448-.775 1.138-1.162 2.072-1.162.774 0 1.367.247 1.778.742.42.495.63 1.134.63 1.918V333h-1.316v-4.046c0-1.129-.523-1.694-1.568-1.694-.495 0-.882.177-1.162.532-.271.345-.406.784-.406 1.316zm5.915 2.142l1.19-.42c.047.364.205.667.476.91.271.233.635.35 1.092.35.355 0 .635-.084.84-.252a.822.822 0 00.308-.644c0-.448-.289-.737-.868-.868l-1.148-.252c-.523-.112-.933-.336-1.232-.672a1.768 1.768 0 01-.448-1.218c0-.579.233-1.078.7-1.498a2.476 2.476 0 011.694-.63c.429 0 .812.065 1.148.196.336.121.597.285.784.49.187.205.327.397.42.574.093.177.163.359.21.546l-1.162.434a1.29 1.29 0 00-.098-.322 1.61 1.61 0 00-.224-.364.913.913 0 00-.42-.308 1.593 1.593 0 00-.658-.126c-.327 0-.597.089-.812.266-.205.177-.308.387-.308.63 0 .429.257.7.77.812l1.092.238c.597.131 1.055.373 1.372.728.327.345.49.77.49 1.274 0 .532-.219 1.013-.658 1.442-.429.429-1.031.644-1.806.644-.831 0-1.479-.205-1.946-.616-.467-.42-.733-.868-.798-1.344z" fill="#626F8C"/></g><path d="M441.727 361h-1.302v-6.734h1.302V361zm-1.33-8.61a.94.94 0 01-.266-.672.94.94 0 01.266-.672.913.913 0 01.672-.28c.261 0 .485.093.672.28.186.177.28.401.28.672a.92.92 0 01-.28.672.944.944 0 01-.672.266.94.94 0 01-.672-.266zm2.939 6.86l1.19-.42c.046.364.205.667.476.91.27.233.634.35 1.092.35.354 0 .634-.084.84-.252a.822.822 0 00.308-.644c0-.448-.29-.737-.868-.868l-1.148-.252c-.523-.112-.934-.336-1.232-.672a1.768 1.768 0 01-.448-1.218c0-.579.233-1.078.7-1.498.476-.42 1.04-.63 1.694-.63.429 0 .812.065 1.148.196.336.121.597.285.784.49.186.205.326.397.42.574.093.177.163.359.21.546l-1.162.434a1.333 1.333 0 00-.098-.322 1.648 1.648 0 00-.224-.364.924.924 0 00-.42-.308 1.593 1.593 0 00-.658-.126c-.327 0-.598.089-.812.266-.206.177-.308.387-.308.63 0 .429.256.7.77.812l1.092.238c.597.131 1.054.373 1.372.728.326.345.49.77.49 1.274 0 .532-.22 1.013-.658 1.442-.43.429-1.032.644-1.806.644-.831 0-1.48-.205-1.946-.616-.467-.42-.733-.868-.798-1.344zm12.224-7.112v2.128h1.456v1.19h-1.456v3.5c0 .317.07.551.21.7.149.149.392.224.728.224.196 0 .368-.019.518-.056v1.12c-.224.084-.523.126-.896.126-.579 0-1.036-.168-1.372-.504-.336-.336-.504-.807-.504-1.414v-3.696h-1.288v-1.19h.364c.345 0 .602-.093.77-.28.177-.196.266-.448.266-.756v-1.092h1.204zm4.528 4.9V361h-1.316v-10.136h1.316v4.186c.448-.653 1.13-.98 2.044-.98.775 0 1.368.247 1.778.742.42.495.63 1.134.63 1.918V361h-1.316v-4.046c0-1.129-.522-1.694-1.568-1.694-.485 0-.863.168-1.134.504-.27.327-.415.751-.434 1.274zm7.4-.098h3.682c-.019-.504-.187-.915-.504-1.232-.318-.327-.766-.49-1.344-.49-.523 0-.952.173-1.288.518a1.804 1.804 0 00-.546 1.204zm3.878 1.75l1.134.392a3.019 3.019 0 01-1.092 1.54c-.532.392-1.176.588-1.932.588-.943 0-1.746-.322-2.408-.966-.654-.653-.98-1.531-.98-2.632 0-1.027.317-1.876.952-2.548.634-.672 1.39-1.008 2.268-1.008 1.017 0 1.81.322 2.38.966.569.635.854 1.489.854 2.562 0 .168-.01.308-.028.42h-5.068c.009.597.205 1.087.588 1.47.392.383.872.574 1.442.574.961 0 1.591-.453 1.89-1.358zm10.15-4.424h1.358l1.75 5.068 1.484-5.068h1.386L485.31 361h-1.358l-1.792-5.124-1.75 5.124h-1.386l-2.212-6.734h1.442l1.512 5.068 1.75-5.068zm8.609 6.734h-1.302v-6.734h1.302V361zm-1.33-8.61a.944.944 0 01-.266-.672c0-.261.089-.485.266-.672a.916.916 0 01.672-.28c.261 0 .485.093.672.28.187.177.28.401.28.672a.916.916 0 01-.28.672.944.944 0 01-.672.266.944.944 0 01-.672-.266zm4.885 4.718V361h-1.316v-6.734h1.288v.966c.448-.775 1.139-1.162 2.072-1.162.775 0 1.367.247 1.778.742.42.495.63 1.134.63 1.918V361h-1.316v-4.046c0-1.129-.523-1.694-1.568-1.694-.495 0-.882.177-1.162.532-.271.345-.406.784-.406 1.316zm7.861 0V361h-1.316v-6.734h1.288v.966c.448-.775 1.139-1.162 2.072-1.162.775 0 1.368.247 1.778.742.42.495.63 1.134.63 1.918V361h-1.316v-4.046c0-1.129-.522-1.694-1.568-1.694-.494 0-.882.177-1.162.532-.27.345-.406.784-.406 1.316zm7.4-.168h3.682c-.019-.504-.187-.915-.504-1.232-.318-.327-.766-.49-1.344-.49-.523 0-.952.173-1.288.518a1.804 1.804 0 00-.546 1.204zm3.878 1.75l1.134.392a3.019 3.019 0 01-1.092 1.54c-.532.392-1.176.588-1.932.588-.943 0-1.746-.322-2.408-.966-.654-.653-.98-1.531-.98-2.632 0-1.027.317-1.876.952-2.548.634-.672 1.39-1.008 2.268-1.008 1.017 0 1.81.322 2.38.966.569.635.854 1.489.854 2.562 0 .168-.01.308-.028.42h-5.068c.009.597.205 1.087.588 1.47.392.383.872.574 1.442.574.961 0 1.591-.453 1.89-1.358zm6.594-4.494v1.4a4.064 4.064 0 00-.574-.042c-1.232 0-1.848.691-1.848 2.072V361h-1.316v-6.734h1.288v1.176c.41-.859 1.082-1.288 2.016-1.288.149 0 .294.014.434.042z" fill="#626F8C"/><path d="M263 124.56l-9.963-5.838-.074 11.547L263 124.56zM89.42 71.21c.695 0 1.385.005 2.07.014l.025-2c-.693-.009-1.391-.014-2.094-.014v2zm8.159.212c1.373.072 2.728.162 4.064.27l.16-1.994c-1.354-.109-2.727-.2-4.12-.273l-.104 1.997zm10.135.89c1.362.17 2.704.357 4.028.561l.306-1.976a138.516 138.516 0 00-4.088-.57l-.246 1.985zm10.03 1.629c1.336.27 2.654.556 3.955.86l.455-1.947c-1.32-.309-2.658-.6-4.015-.874l-.395 1.961zm9.863 2.384c1.318.372 2.618.76 3.902 1.165l.6-1.907a137.56 137.56 0 00-3.958-1.183l-.544 1.925zm9.675 3.123c1.285.466 2.555.947 3.811 1.442l.733-1.86a152.42 152.42 0 00-3.861-1.463l-.683 1.88zm9.446 3.787c1.25.547 2.488 1.106 3.715 1.676l.843-1.814a184.359 184.359 0 00-3.756-1.694l-.802 1.832zm9.221 4.333c1.22.61 2.431 1.228 3.635 1.854l.922-1.775a257.381 257.381 0 00-3.663-1.868l-.894 1.789zm9.043 4.73c1.199.65 2.393 1.306 3.584 1.965l.968-1.75a514.786 514.786 0 00-3.598-1.973l-.954 1.758zm8.943 4.956l1.785 1.003 1.786 1.003.979-1.744-1.785-1.003-1.786-1.003-.979 1.744zm8.941 5.003c1.195.662 2.394 1.32 3.599 1.974l.954-1.758a474.523 474.523 0 01-3.584-1.966l-.969 1.75zm9.039 4.867c1.212.63 2.433 1.253 3.663 1.868l.894-1.789c-1.22-.61-2.431-1.228-3.635-1.854l-.922 1.775zm9.22 4.55a189.04 189.04 0 003.755 1.694l.802-1.832a181.905 181.905 0 01-3.714-1.676l-.843 1.814zm9.459 4.067c1.273.502 2.559.989 3.862 1.462l.683-1.88a148.122 148.122 0 01-3.812-1.443l-.733 1.861zm9.717 3.447c1.303.41 2.622.805 3.959 1.182l.544-1.924a133.693 133.693 0 01-3.902-1.166l-.601 1.908zm9.956 2.729c1.32.308 2.658.6 4.015.873l.395-1.96c-1.337-.27-2.655-.557-3.955-.861l-.455 1.948zm10.106 1.957c1.344.208 2.706.398 4.087.569l.247-1.984c-1.362-.17-2.704-.357-4.029-.562l-.305 1.977zm10.244 1.198c1.355.109 2.728.201 4.12.274l.105-1.997a151.73 151.73 0 01-4.064-.27l-.161 1.993z" fill="#D0514D"/><circle cx="89.421" cy="70.21" r="3" fill="#fff" stroke="#D0514D" stroke-width="2"/><path d="M271 227.421l-9.95-5.86-.1 11.547 10.05-5.687zM89.42 140.21c.67 0 1.335.006 1.995.018l.035-2c-.672-.012-1.349-.018-2.03-.018v2zm7.834.273c1.327.093 2.637.211 3.928.351l.216-1.988a105.649 105.649 0 00-4.004-.358l-.14 1.995zm9.736 1.151a97.21 97.21 0 013.815.717l.409-1.958c-1.28-.267-2.578-.511-3.893-.732l-.331 1.973zm9.528 2.09c1.271.347 2.524.716 3.759 1.108l.605-1.907a97.524 97.524 0 00-3.837-1.13l-.527 1.929zm9.291 3.045c1.219.469 2.423.959 3.611 1.469l.79-1.838c-1.212-.52-2.44-1.02-3.684-1.498l-.717 1.867zm8.94 3.938a110.92 110.92 0 013.478 1.807l.953-1.758a111.635 111.635 0 00-3.541-1.84l-.89 1.791zm8.571 4.735a132.98 132.98 0 013.318 2.084l1.089-1.678a136.33 136.33 0 00-3.369-2.116l-1.038 1.71zm8.189 5.388c1.069.755 2.128 1.525 3.179 2.305l1.193-1.605a167.688 167.688 0 00-3.217-2.333l-1.155 1.633zm7.856 5.895c1.028.813 2.049 1.635 3.064 2.466l1.267-1.547a230.093 230.093 0 00-3.09-2.488l-1.241 1.569zm7.595 6.255c.999.852 1.994 1.71 2.986 2.573l1.313-1.509a430.728 430.728 0 00-3.001-2.586l-1.298 1.522zm7.428 6.48c.984.873 1.966 1.749 2.947 2.626l1.333-1.491c-.983-.878-1.966-1.756-2.952-2.631l-1.328 1.496zm7.365 6.577c.982.878 1.966 1.755 2.952 2.63l1.328-1.495c-.984-.873-1.966-1.749-2.948-2.626l-1.332 1.491zm7.409 6.551a388.92 388.92 0 003.001 2.586l1.298-1.522c-.999-.852-1.994-1.71-2.986-2.573l-1.313 1.509zm7.563 6.4c1.023.837 2.053 1.667 3.09 2.488l1.241-1.569a239.493 239.493 0 01-3.065-2.467l-1.266 1.548zm7.815 6.113c1.063.79 2.135 1.568 3.217 2.334l1.155-1.633a166.898 166.898 0 01-3.179-2.306l-1.193 1.605zm8.154 5.683c1.111.72 2.233 1.426 3.369 2.115l1.038-1.709a131.167 131.167 0 01-3.318-2.084l-1.089 1.678zm8.547 5.091c1.165.632 2.345 1.246 3.54 1.841l.891-1.791a113.115 113.115 0 01-3.478-1.808l-.953 1.758zm8.97 4.356c1.212.521 2.439 1.02 3.684 1.498l.717-1.867a98.4 98.4 0 01-3.612-1.469l-.789 1.838zm9.328 3.475c1.262.4 2.54.777 3.837 1.131l.526-1.93a97.001 97.001 0 01-3.759-1.107l-.604 1.906zm9.668 2.532c1.28.267 2.578.512 3.893.732l.331-1.972c-1.29-.217-2.561-.456-3.816-.717l-.408 1.957zm9.816 1.548c1.316.143 2.651.262 4.003.358l.141-1.995a105.812 105.812 0 01-3.929-.351l-.215 1.988z" fill="#429DFC"/><circle cx="89.421" cy="139.21" r="3" fill="#fff" stroke="#429DFC" stroke-width="2"/><path d="M263 124.56l-10.085-5.625.171 11.546L263 124.56zM90.42 278.211c.704 0 1.401-.011 2.094-.031l-.06-1.999c-.672.02-1.35.03-2.033.03v2zm8.2-.491a62.92 62.92 0 004.088-.633l-.371-1.965a61.686 61.686 0 01-3.959.613l.243 1.985zm10.069-2.069a62.382 62.382 0 003.885-1.281l-.689-1.878a59.235 59.235 0 01-3.759 1.239l.563 1.92zm9.563-3.684a66.277 66.277 0 003.637-1.893l-.977-1.745a64.082 64.082 0 01-3.528 1.836l.868 1.802zm8.862-5.128a76.834 76.834 0 003.329-2.395l-1.21-1.592a75.324 75.324 0 01-3.243 2.333l1.124 1.654zm8.07-6.278a95.997 95.997 0 003.007-2.763l-1.384-1.444a93.003 93.003 0 01-2.944 2.705l1.321 1.502zm7.308-7.129c.919-.986 1.826-1.994 2.722-3.021l-1.507-1.315a122.246 122.246 0 01-2.678 2.972l1.463 1.364zm6.632-7.711a161.598 161.598 0 002.511-3.226l-1.594-1.208a161.278 161.278 0 01-2.479 3.186l1.562 1.248zm6.107-8.133c.78-1.1 1.552-2.212 2.318-3.335l-1.652-1.127a223.859 223.859 0 01-2.297 3.305l1.631 1.157zm5.694-8.415a336.596 336.596 0 002.178-3.408l-1.692-1.067a302.136 302.136 0 01-2.164 3.386l1.678 1.089zm5.381-8.582a531.566 531.566 0 002.093-3.471l-1.717-1.026a502.082 502.082 0 01-2.084 3.457l1.708 1.04zm5.184-8.7a1071.29 1071.29 0 002.041-3.501l-1.73-1.004a971.677 971.677 0 01-2.036 3.495l1.725 1.01zm5.077-8.754l1.01-1.752 1.01-1.753-1.733-.999-1.01 1.753-1.01 1.753 1.733.998zm5.052-8.752c.678-1.168 1.357-2.333 2.037-3.495l-1.726-1.01a916.213 916.213 0 00-2.04 3.501l1.729 1.004zm5.119-8.708a518.433 518.433 0 012.085-3.457l-1.708-1.04a490.771 490.771 0 00-2.093 3.471l1.716 1.026zm5.272-8.604a311.71 311.71 0 012.164-3.387l-1.678-1.088a319.954 319.954 0 00-2.178 3.408l1.692 1.067zm5.514-8.428c.76-1.114 1.525-2.216 2.297-3.305l-1.631-1.157c-.78 1.1-1.552 2.212-2.318 3.335l1.652 1.127zm5.856-8.161a161.278 161.278 0 012.479-3.186l-1.563-1.248a161.563 161.563 0 00-2.51 3.226l1.594 1.208zm6.334-7.81a121.988 121.988 0 012.678-2.971l-1.463-1.364c-.919.986-1.826 1.994-2.722 3.021l1.507 1.314zm6.899-7.257c.969-.928 1.95-1.83 2.945-2.705l-1.321-1.502a95.997 95.997 0 00-3.007 2.763l1.383 1.444zm7.575-6.498a74.706 74.706 0 013.243-2.333l-1.125-1.655a79.2 79.2 0 00-3.328 2.395l1.21 1.593zm8.321-5.477a64.082 64.082 0 013.528-1.836l-.868-1.802a65.59 65.59 0 00-3.637 1.893l.977 1.745zm9.027-4.163a59.886 59.886 0 013.759-1.24l-.564-1.919a62.57 62.57 0 00-3.884 1.281l.689 1.878zm9.548-2.63a60.97 60.97 0 013.959-.613l-.243-1.986a63.652 63.652 0 00-4.087.634l.371 1.965z" fill="#D0514D"/><circle cx="90.421" cy="277.21" r="3" fill="#fff" stroke="#D0514D" stroke-width="2"/><path d="M271 227.421l-9.987-5.796-.026 11.547L271 227.421zM89.42 209.21c.69 0 1.376.002 2.058.005l.009-2c-.685-.003-1.373-.005-2.066-.005v2zm8.129.073c1.37.025 2.723.056 4.061.092l.055-1.999a436.24 436.24 0 00-4.08-.093l-.036 2zm10.142.304c1.365.057 2.713.121 4.046.191l.104-1.998c-1.339-.07-2.695-.134-4.066-.191l-.084 1.998zm10.113.554c1.359.092 2.702.189 4.03.293l.156-1.994a415.889 415.889 0 00-4.051-.295l-.135 1.996zm10.086.813c1.365.128 2.714.262 4.049.401l.208-1.989c-1.342-.14-2.698-.274-4.07-.403l-.187 1.991zm10.088 1.078c1.356.162 2.697.33 4.026.502l.257-1.983a417.47 417.47 0 00-4.045-.505l-.238 1.986zm10.05 1.326c1.347.194 2.684.392 4.01.594l.301-1.977a450.184 450.184 0 00-4.027-.596l-.284 1.979zm10.019 1.545c1.341.22 2.674.443 4 .669l.336-1.972a645.12 645.12 0 00-4.013-.67l-.323 1.973zm9.997 1.714c1.336.238 2.667.478 3.995.718l.357-1.968c-1.33-.241-2.663-.481-4.002-.719l-.35 1.969zm9.988 1.815l1.997.367 1.998.368.362-1.967-1.998-.368-1.997-.367-.362 1.967zm9.993 1.832c1.33.241 2.663.481 4.001.719l.351-1.969c-1.336-.238-2.667-.477-3.995-.718l-.357 1.968zm10.013 1.767c1.33.227 2.667.45 4.013.671l.323-1.974c-1.341-.22-2.674-.443-4-.669l-.336 1.972zm10.044 1.625c1.331.203 2.673.402 4.026.597l.285-1.98a451.703 451.703 0 01-4.01-.594l-.301 1.977zm10.078 1.425c1.335.173 2.683.341 4.045.504l.237-1.985c-1.355-.163-2.696-.33-4.025-.503l-.257 1.984zm10.114 1.185c1.342.139 2.698.274 4.07.403l.186-1.992a372.667 372.667 0 01-4.048-.401l-.208 1.99zm10.157.925c1.335.105 2.685.203 4.051.295l.134-1.995c-1.358-.092-2.701-.19-4.03-.294l-.155 1.994zm10.148.66c1.34.07 2.695.134 4.067.192l.084-1.998a437.612 437.612 0 01-4.046-.191l-.105 1.997zm10.177.404c1.344.037 2.704.068 4.08.093l.036-1.999c-1.37-.025-2.723-.056-4.061-.093l-.055 1.999z" fill="#429DFC"/><circle cx="89.421" cy="208.21" r="3" fill="#fff" stroke="#429DFC" stroke-width="2"/><path d="M502 70.5l-10.038-5.707.076 11.546L502 70.5zm-168.031 55.06c.682 0 1.361-.004 2.034-.013l-.026-2c-.665.009-1.334.013-2.008.013v2zm8.027-.214c1.352-.073 2.685-.164 4.001-.273l-.165-1.993c-1.297.107-2.611.197-3.944.269l.108 1.997zm9.98-.901c1.342-.171 2.665-.361 3.969-.569l-.314-1.975a130.23 130.23 0 01-3.908.56l.253 1.984zm9.882-1.651c1.316-.273 2.614-.564 3.895-.872l-.467-1.944a126.72 126.72 0 01-3.834.858l.406 1.958zm9.71-2.415c1.296-.376 2.574-.77 3.836-1.179l-.617-1.902c-1.243.403-2.501.79-3.777 1.161l.558 1.92zm9.507-3.157c1.261-.471 2.506-.957 3.737-1.456l-.751-1.854a140.28 140.28 0 01-3.686 1.436l.7 1.874zm9.254-3.819a172.32 172.32 0 003.629-1.685l-.862-1.805a173.182 173.182 0 01-3.588 1.667l.821 1.823zm8.998-4.351c1.187-.611 2.365-1.23 3.536-1.856l-.943-1.763a247.467 247.467 0 01-3.508 1.84l.915 1.779zm8.785-4.728a503.605 503.605 0 003.472-1.959l-.99-1.738a465.608 465.608 0 01-3.457 1.95l.975 1.747zm8.651-4.933l1.722-.995 1.721-.995-1-1.732-1.722.995-1.722.995 1.001 1.732zm8.612-4.958a466.94 466.94 0 013.457-1.95l-.976-1.746a510.26 510.26 0 00-3.471 1.958l.99 1.738zm8.674-4.805a248.547 248.547 0 013.508-1.841l-.915-1.779c-1.187.611-2.366 1.23-3.536 1.856l.943 1.764zm8.824-4.481a175.276 175.276 0 013.588-1.667l-.821-1.823c-1.222.55-2.432 1.113-3.63 1.685l.863 1.805zm9.035-3.999c1.215-.492 2.443-.972 3.686-1.436l-.7-1.874c-1.261.472-2.506.957-3.737 1.457l.751 1.853zm9.274-3.386c1.242-.403 2.501-.79 3.776-1.16l-.558-1.921c-1.295.376-2.573.77-3.835 1.179l.617 1.902zm9.501-2.68c1.261-.303 2.538-.589 3.834-.858l-.406-1.958a127.71 127.71 0 00-3.896.872l.468 1.944zm9.654-1.923c1.285-.204 2.588-.391 3.909-.56l-.253-1.984c-1.342.172-2.665.361-3.97.569l.314 1.975zm9.8-1.179c1.297-.107 2.611-.197 3.944-.269l-.108-1.997a140.82 140.82 0 00-4.001.273l.165 1.993z" fill="#545B73"/><circle cx="333.969" cy="124.56" r="3" fill="#fff" stroke="#545B73" stroke-width="2"/><path d="M502 139.5l-9.988-5.793-.023 11.547L502 139.5zm-168.031-13.94c.674 0 1.344.002 2.01.004l.008-2a673.38 673.38 0 00-2.018-.004v2zm7.952.064c1.336.021 2.655.048 3.959.08l.049-1.999a494.738 494.738 0 00-3.975-.081l-.033 2zm9.905.265c1.34.051 2.664.107 3.971.168l.094-1.998a468.889 468.889 0 00-3.99-.168l-.075 1.998zm9.908.486c1.332.081 2.648.167 3.949.257l.139-1.995a439.315 439.315 0 00-3.967-.258l-.121 1.996zm9.88.713c1.327.111 2.64.227 3.938.348l.185-1.991a417.086 417.086 0 00-3.956-.35l-.167 1.993zm9.862.939c1.324.141 2.634.287 3.932.436l.229-1.987c-1.304-.15-2.62-.296-3.949-.437l-.212 1.988zm9.844 1.152c1.32.167 2.629.338 3.929.512l.265-1.982a545.275 545.275 0 00-3.942-.515l-.252 1.985zm9.828 1.329c1.315.188 2.623.378 3.925.57l.292-1.978a772.58 772.58 0 00-3.934-.572l-.283 1.98zm9.815 1.455c1.31.199 2.618.4 3.924.601l.305-1.976c-1.307-.202-2.616-.403-3.928-.602l-.301 1.977zm9.814 1.51c1.307.201 2.616.402 3.928.602l.301-1.977c-1.311-.2-2.618-.401-3.925-.602l-.304 1.977zm9.827 1.488c1.305.192 2.616.383 3.934.571l.283-1.98a899.895 899.895 0 01-3.925-.57l-.292 1.979zm9.851 1.391c1.304.174 2.617.346 3.942.514l.251-1.984a556.598 556.598 0 01-3.928-.512l-.265 1.982zm9.877 1.232c1.304.15 2.62.296 3.949.438l.212-1.989a441.705 441.705 0 01-3.932-.436l-.229 1.987zm9.899 1.032c1.305.121 2.623.238 3.957.349l.167-1.993a413.39 413.39 0 01-3.938-.348l-.186 1.992zm9.916.807c1.307.091 2.629.178 3.967.259l.121-1.997c-1.332-.08-2.648-.166-3.949-.257l-.139 1.995zm9.931.578c1.314.062 2.643.118 3.99.169l.075-1.999a464.43 464.43 0 01-3.972-.168l-.093 1.998zm9.962.354c1.309.033 2.634.06 3.975.081l.032-1.999a490.389 490.389 0 01-3.958-.081l-.049 1.999z" fill="#545B73"/><circle cx="333.969" cy="124.56" r="3" fill="#fff" stroke="#545B73" stroke-width="2"/><path d="M502 208.5l-10.013-5.751.026 11.547L502 208.5zm-177.088 19.921c.675 0 1.347-.001 2.015-.004l-.009-2c-.665.003-1.334.004-2.006.004v2zm7.963-.072a416 416 0 003.981-.091l-.056-1.999a446.87 446.87 0 01-3.961.091l.036 1.999zm9.941-.3c1.338-.057 2.66-.12 3.966-.189l-.105-1.997c-1.3.068-2.615.131-3.946.187l.085 1.999zm9.915-.549c1.332-.091 2.649-.188 3.951-.29l-.157-1.994c-1.295.102-2.605.199-3.931.289l.137 1.995zm9.888-.805c1.338-.127 2.661-.259 3.97-.397l-.21-1.989a379.36 379.36 0 01-3.948.395l.188 1.991zm9.89-1.067c1.328-.161 2.643-.326 3.945-.497l-.259-1.983c-1.296.17-2.605.335-3.926.494l.24 1.986zm9.847-1.313c1.32-.191 2.629-.387 3.927-.587l-.304-1.977c-1.293.199-2.596.394-3.91.585l.287 1.979zm9.809-1.527c1.312-.218 2.616-.438 3.913-.661l-.339-1.971c-1.293.222-2.593.442-3.901.658l.327 1.974zm9.775-1.693c1.305-.235 2.606-.471 3.902-.709l-.36-1.967c-1.295.237-2.593.473-3.895.707l.353 1.969zm9.751-1.789l1.948-.362 1.948-.362-.366-1.967-1.948.362-1.948.363.366 1.966zm9.739-1.804c1.295-.237 2.593-.473 3.895-.707l-.353-1.969c-1.306.235-2.606.471-3.903.709l.361 1.967zm9.743-1.737a632.38 632.38 0 013.9-.658l-.326-1.973a611.95 611.95 0 00-3.913.66l.339 1.971zm9.76-1.595c1.293-.199 2.596-.394 3.91-.585l-.287-1.979c-1.32.191-2.629.387-3.928.587l.305 1.977zm9.784-1.397c1.296-.169 2.604-.334 3.926-.494l-.24-1.986c-1.328.161-2.643.327-3.945.497l.259 1.983zm9.815-1.161a379.57 379.57 0 013.949-.395l-.189-1.991c-1.338.127-2.66.259-3.969.397l.209 1.989zm9.855-.907a393 393 0 013.93-.289l-.136-1.995c-1.332.091-2.649.188-3.951.29l.157 1.994zm9.848-.646c1.3-.069 2.615-.132 3.946-.188l-.085-1.998c-1.338.056-2.66.12-3.967.188l.106 1.998zm9.876-.396c1.306-.037 2.626-.067 3.962-.092l-.036-1.999a416 416 0 00-3.981.091l.055 2z" fill="#545B73"/><circle cx="324.912" cy="227.421" r="3" fill="#fff" stroke="#545B73" stroke-width="2"/><path d="M502 277.5l-9.968-5.828-.064 11.546L502 277.5zm-177.088-49.079c.664 0 1.324.004 1.979.011l.023-2c-.664-.007-1.331-.011-2.002-.011v2zm7.802.173c1.319.059 2.621.133 3.906.221l.137-1.995c-1.301-.09-2.619-.164-3.953-.224l-.09 1.998zm9.725.727c1.3.137 2.583.289 3.85.455l.26-1.983a157.342 157.342 0 00-3.9-.461l-.21 1.989zm9.616 1.325c1.296.221 2.575.457 3.839.707l.388-1.961a146.31 146.31 0 00-3.891-.717l-.336 1.971zm9.54 1.953c1.273.305 2.53.623 3.773.955l.516-1.932a153.538 153.538 0 00-3.824-.968l-.465 1.945zm9.382 2.568c1.246.384 2.478.78 3.697 1.188l.635-1.896a164.009 164.009 0 00-3.743-1.204l-.589 1.912zm9.206 3.14c1.223.457 2.434.925 3.635 1.402l.739-1.858a189.457 189.457 0 00-3.675-1.417l-.699 1.873zm9.035 3.641c1.2.517 2.391 1.042 3.574 1.575l.821-1.824a240.518 240.518 0 00-3.604-1.588l-.791 1.837zm8.887 4.033c1.18.56 2.353 1.125 3.522 1.694l.876-1.798a386.6 386.6 0 00-3.541-1.703l-.857 1.807zm8.781 4.292c1.167.583 2.332 1.169 3.497 1.756l.9-1.785a1040.09 1040.09 0 00-3.503-1.76l-.894 1.789zm8.742 4.405c1.166.587 2.333 1.174 3.504 1.759l.894-1.789a950.567 950.567 0 01-3.497-1.756l-.901 1.786zm8.781 4.366a386.4 386.4 0 003.54 1.703l.857-1.807a423.872 423.872 0 01-3.522-1.694l-.875 1.798zm8.89 4.178c1.192.537 2.393 1.067 3.604 1.588l.791-1.837c-1.2-.517-2.391-1.042-3.574-1.575l-.821 1.824zm9.056 3.848a183.1 183.1 0 003.674 1.417l.7-1.873a190.38 190.38 0 01-3.635-1.402l-.739 1.858zm9.247 3.392c1.234.413 2.482.815 3.744 1.204l.589-1.912c-1.247-.384-2.479-.78-3.698-1.188l-.635 1.896zm9.426 2.838c1.259.336 2.533.658 3.823.967l.466-1.945a149.47 149.47 0 01-3.773-.955l-.516 1.933zm9.602 2.23c1.28.253 2.577.492 3.89.717l.337-1.972a147.24 147.24 0 01-3.839-.707l-.388 1.962zm9.733 1.598c1.284.168 2.583.322 3.9.461l.21-1.989c-1.3-.137-2.583-.289-3.85-.455l-.26 1.983zm9.792.973c1.301.09 2.619.164 3.953.224l.09-1.998a165.637 165.637 0 01-3.907-.221l-.136 1.995z" fill="#545B73"/><circle cx="324.912" cy="227.421" r="3" fill="#fff" stroke="#545B73" stroke-width="2"/><defs><filter id="filter0_d" x="435" y="0" width="184" height="39" filterUnits="userSpaceOnUse" color-interpolation-filters="sRGB"><feFlood flood-opacity="0" result="BackgroundImageFix"/><feColorMatrix in="SourceAlpha" values="0 0 0 0 0 0 0 0 0 0 0 0 0 0 0 0 0 0 127 0"/><feOffset/><feGaussianBlur stdDeviation="2"/><feColorMatrix values="0 0 0 0 0 0 0 0 0 0 0 0 0 0 0 0 0 0 0.08 0"/><feBlend in2="BackgroundImageFix" result="effect1_dropShadow"/><feBlend in="SourceGraphic" in2="effect1_dropShadow" result="shape"/></filter><filter id="filter1_d" x="0" y="0" width="125" height="39" filterUnits="userSpaceOnUse" color-interpolation-filters="sRGB"><feFlood flood-opacity="0" result="BackgroundImageFix"/><feColorMatrix in="SourceAlpha" values="0 0 0 0 0 0 0 0 0 0 0 0 0 0 0 0 0 0 127 0"/><feOffset/><feGaussianBlur stdDeviation="2"/><feColorMatrix values="0 0 0 0 0 0 0 0 0 0 0 0 0 0 0 0 0 0 0.08 0"/><feBlend in2="BackgroundImageFix" result="effect1_dropShadow"/><feBlend in="SourceGraphic" in2="effect1_dropShadow" result="shape"/></filter><filter id="filter2_d" x="225" y="308" width="141" height="39" filterUnits="userSpaceOnUse" color-interpolation-filters="sRGB"><feFlood flood-opacity="0" result="BackgroundImageFix"/><feColorMatrix in="SourceAlpha" values="0 0 0 0 0 0 0 0 0 0 0 0 0 0 0 0 0 0 127 0"/><feOffset/><feGaussianBlur stdDeviation="2"/><feColorMatrix values="0 0 0 0 0 0 0 0 0 0 0 0 0 0 0 0 0 0 0.08 0"/><feBlend in2="BackgroundImageFix" result="effect1_dropShadow"/><feBlend in="SourceGraphic" in2="effect1_dropShadow" result="shape"/></filter></defs></svg>